<?xml version="1.0" encoding="utf-8" ?>
<svg xmlns="http://www.w3.org/2000/svg" xmlns:xlink="http://www.w3.org/1999/xlink" width="512" height="512">
	<path fill="#8D99AE" d="M403.205 10.62C405.709 10.4245 408.274 10.5806 410.787 10.5944L433.975 10.5714C438.577 10.5661 441.292 10.0158 444.142 14.3461C446.512 17.9463 444.994 20.4886 443.028 23.75L434.884 37.501C432.398 42.1733 428.345 53.2002 423.542 55.863L423.053 56.1492C420.432 57.326 414.589 55.1113 413.192 52.8715C411.379 49.9639 413.663 45.3927 414.414 42.5L414.16 42.125C413.234 42.227 412.312 42.6735 411.496 43.1096L411.25 43.2426C407.465 45.2605 404.416 48.7303 401.278 51.5905L331.696 113.157C327.952 116.529 324.306 120.193 320.374 123.331C316.065 126.77 313.819 127.432 308.75 125.029C302.897 122.255 297.278 118.888 291.609 115.753L233.11 85.267C225.792 81.4238 218.241 77.8279 211.331 73.2739C207.969 78.2043 203.928 82.8109 200.282 87.5519L174.354 121.586C169.835 127.607 167.461 130.109 161.485 134.48L91.1435 182.994L77.5483 192.495C71.4412 196.93 61.9051 206.107 56.7559 194.125C54.2801 188.364 59.8857 183.856 64.0595 181.042L145.759 124.843C154.422 118.813 155.369 118.246 161.833 110.332L199.486 61.316C208.414 50.2631 210.622 54.673 221.173 60.2454L312.251 107.828L331 92.0151L385.714 42.735C391.579 37.6797 397.449 33.1964 402.395 27.1458C400.555 24.7686 393.402 22.9939 396.069 16.126L396.227 15.75C397.438 12.824 400.033 10.9709 403.205 10.62Z"/>
	<path fill="#FFD76D" d="M233.165 469.855L233.052 199.303C233.051 198.756 232.925 198.013 233.191 197.533L278.533 197.62C279.039 198.225 278.744 199.096 278.747 199.842L278.763 469.977L233.165 469.855Z"/>
	<path fill="#8D99AE" d="M36.5634 469.845L36.4427 239.541L96.8303 239.556L96.8818 469.744L36.5634 469.845Z"/>
	<path fill="#8D99AE" d="M155.126 469.848L155.051 168.682L215.074 168.408C215.404 170.084 215.182 172.212 215.188 173.932L215.248 440.528C215.25 450.259 214.794 460.205 215.722 469.893C213.467 469.545 211.037 469.758 208.715 469.788L155.126 469.848Z"/>
	<path fill="#8D99AE" d="M296.502 469.848L296.689 157.995L356.762 157.82L356.763 469.637L296.502 469.848Z"/>
	<path fill="#8D99AE" d="M414.74 469.843L414.922 128.496C414.921 126.866 414.618 124.493 415.02 122.975L475.283 123.015L475.013 469.835L414.74 469.843Z"/>
	<path fill="#2B2D42" d="M155.126 469.848L208.715 469.788C211.037 469.758 213.467 469.545 215.768 469.882L233.165 470.01L278.695 469.848L296.502 469.848L356.749 469.802L414.74 469.848L474.976 469.847L499.895 469.887C502.34 469.894 505.377 469.586 507.548 470.875L507.845 471.05C509.37 471.994 510.715 473.521 512 474.773L512 495.083L512 512L0 512L0 495.511L0 474.641L1.71508 472.608C5.61524 468.663 10.1803 469.832 15.2551 469.83L36.5634 469.846L96.7228 469.831L155.126 469.848ZM0 495.511L0 512L512 512L512 495.083C506.754 500.002 504.969 499.268 498.265 499.263L7.125 499.245C4.80513 499.134 1.89048 496.793 0 495.511Z"/>
</svg>
