<?xml version="1.0" encoding="utf-8" ?>
<svg xmlns="http://www.w3.org/2000/svg" xmlns:xlink="http://www.w3.org/1999/xlink" width="512" height="511">
	<path fill="#161A1D" transform="scale(0.666667 0.666667)" d="M-0 -0L768 0L768 768L-0 768L0 -0Z"/>
	<path fill="#F5F3F4" transform="scale(0.666667 0.666667)" d="M348.692 43.6875L349.801 43.5842C348.271 46.0753 336.323 52.4765 332.857 54.5625C332.133 54.7397 332.445 54.7903 331.907 54.5625C336.624 49.0141 342.209 46.5564 348.692 43.6875Z"/>
	<path fill="#D3D3D3" transform="scale(0.666667 0.666667)" d="M468.484 84.5689C471.569 85.5332 474.444 87.5076 477.484 88.2644L477.735 88.8894C478.086 89.7017 478.548 90.0139 479.25 90.4935C480.895 91.6167 483.328 92.9476 483.761 95.0639C483.945 95.9594 484.035 96.811 483.72 97.6829C483.251 98.2045 482.965 98.2707 482.323 98.5131C481.777 99.6376 481.699 99.8894 480.613 100.599C480.98 99.7357 481.508 98.7399 481.595 97.8018C481.859 94.9433 474.272 89.9604 472.181 88.1998C470.851 87.0793 469.663 85.8444 468.484 84.5689Z"/>
	<path fill="white" transform="scale(0.666667 0.666667)" d="M344.452 182.255C360.083 178.571 377.343 176.796 393.375 177.857C402.794 178.48 412.217 180.175 421.454 182.067C420.386 182.547 419.611 182.643 418.446 182.675C415.947 185.32 414.405 185.08 410.95 185.247C410.265 185.28 409.431 185.161 408.856 185.544C401.346 185.913 393.915 188.126 386.398 188.296C381.328 188.411 376.263 187.249 371.239 186.681L352.612 185.237C351.916 185.081 352.139 185.098 351.531 185.064C349.633 184.958 347.757 185.069 346.075 184.071C345.208 183.556 344.826 183.358 343.801 183.294C342.805 183.232 342.369 183.135 341.504 182.64C342.477 182.412 343.459 182.345 344.452 182.255Z"/>
	<path fill="#BA181B" transform="scale(0.666667 0.666667)" d="M341.504 182.64C342.477 182.412 343.459 182.345 344.452 182.255C347.019 182.92 349.819 182.862 352.463 183.061L362.57 184.182L382.743 187.086C384.184 187.248 385.621 187.171 387.059 187.027C397.439 185.982 408.003 182.679 418.446 182.675C415.947 185.32 414.405 185.08 410.95 185.247C410.265 185.28 409.431 185.161 408.856 185.544C401.346 185.913 393.915 188.126 386.398 188.296C381.328 188.411 376.263 187.249 371.239 186.681L352.612 185.237C351.916 185.081 352.139 185.098 351.531 185.064C349.633 184.958 347.757 185.069 346.075 184.071C345.208 183.556 344.826 183.358 343.801 183.294C342.805 183.232 342.369 183.135 341.504 182.64Z"/>
	<defs>
		<linearGradient id="gradient_0" gradientUnits="userSpaceOnUse" x1="527.13263" y1="175.0009" x2="549.40564" y2="95.635551">
			<stop offset="0" stop-color="#805058"/>
			<stop offset="1" stop-color="#B4606D"/>
		</linearGradient>
	</defs>
	<path fill="url(#gradient_0)" transform="scale(0.666667 0.666667)" d="M444.612 71.6768L425.227 63.9275C433.946 64.4594 442.606 66.6909 451.019 68.9532L468.75 73.3992C472.547 74.3712 476.367 75.1108 480.074 76.402C490.645 80.0831 500.779 84.7329 510.902 89.4873C524.112 95.6913 537.698 102.691 550.024 110.52C560.333 117.068 569.931 124.489 579.379 132.203C598.01 147.414 614.58 163.583 629.852 182.174C636.708 190.522 643.918 199.319 649.631 208.476C650.021 209.103 649.932 208.836 650.039 209.288L649.576 209.441C648.951 208.913 649.211 209.22 648.762 208.429C648.524 208.011 648.347 207.703 648.034 207.327L647.747 206.998C647.178 206.145 646.862 205.443 646.125 204.68L645.754 204.743C645 206.726 646.831 207.127 646.688 208.887C643.5 203.62 639.797 198.605 635.758 193.95C632.596 189.383 628.805 185.899 625.229 181.729L619.949 175.044L604.206 157.833C599.76 153.433 594.673 149.476 589.984 145.312C586.655 142.357 582.875 138.339 578.908 136.329C578.501 136.471 578.118 136.736 577.688 136.754C576.578 136.801 571.889 132.854 570.788 132.022C547.94 114.747 521.878 99.3248 495.093 89.1225C491.295 87.6758 487.375 85.9043 483.419 84.9724C477.825 83.0098 472.124 81.5263 466.414 79.9517C464.133 79.3225 460.925 77.9084 458.673 78.557C458.125 78.5313 457.126 77.9309 456.618 77.6789C454.235 76.4962 451.96 75.0126 449.636 73.7086C447.926 73.3293 446.215 72.3853 444.612 71.6768Z"/>
	<path fill="#A4161A" transform="scale(0.666667 0.666667)" d="M449.636 73.7086C452.511 72.8216 457.12 74.9556 460.125 75.7532L480.345 81.55C495.627 86.72 510.589 93.5184 524.839 101.036C534.557 106.162 544.138 111.519 553.251 117.673L578.908 136.329C578.501 136.471 578.118 136.736 577.688 136.754C576.578 136.801 571.889 132.854 570.788 132.022C547.94 114.747 521.878 99.3248 495.093 89.1225C491.295 87.6758 487.375 85.9043 483.419 84.9724C477.825 83.0098 472.124 81.5263 466.414 79.9517C464.133 79.3225 460.925 77.9084 458.673 78.557C458.125 78.5313 457.126 77.9309 456.618 77.6789C454.235 76.4962 451.96 75.0126 449.636 73.7086Z"/>
	<path fill="#BA181B" transform="scale(0.666667 0.666667)" d="M713.971 339.562C713.356 335.764 713.401 331.817 713.209 327.977C713.031 324.415 712.53 320.229 713.207 316.724C714.979 321.566 715.607 326.456 716.932 331.395C717.603 333.895 718.761 336.174 719.504 338.628C720.008 340.289 720.682 341.403 720.888 343.22C721.655 347.836 721.757 352.55 722.026 357.217C722.636 367.801 722.649 378.215 722.189 388.814C721.545 403.674 720.631 418.528 718.488 433.263C714.188 462.834 705.401 492.037 693.06 519.244C689.918 527.745 685.776 535.455 681.34 543.327L681.237 543.342C678.861 548.532 675.677 553.49 672.763 558.394C658.135 583.01 640.435 604.957 619.635 624.618C615.896 628.151 612.163 632.196 607.961 635.167L600.018 642.236C595.266 647.426 589.113 651.472 583.474 655.603C575.502 661.443 567.76 667.445 559.047 672.202L558.389 672.581C546.823 679.894 534.401 686.06 521.979 691.788C518.605 693.344 514.632 695.513 511.03 696.377C504.979 699.525 497.411 702.413 490.819 704.178C475.268 709.971 459.124 713.891 442.842 716.948C415.925 722.001 389.085 724.32 361.721 721.846C355.238 721.26 347.968 720.783 341.707 719.076L341.621 719.015C337.788 718.458 333.865 717.364 330.166 716.218L333.188 716.4L333.938 715.703C332.057 712.931 326.431 710.478 323.375 709.234L321.271 708.137L314.04 704.451C312.24 703.447 310.651 702.11 308.779 701.239C303.619 698.839 298.2 697.269 292.831 695.435L274.092 689.003L269.204 686.903C273.182 687.51 277.015 688.979 280.875 690.076C290.521 692.816 300.289 695.903 309.623 699.595L331.656 708.692C339.249 711.505 347.976 712.863 355.955 713.815C364.674 714.855 373.332 715.708 382.125 715.705C390.668 715.702 399.263 714.917 407.772 714.194C413.787 713.683 420.308 713.395 426.172 711.964C455.55 708.174 485.151 699.677 512.253 687.775C527.755 680.968 542.594 672.87 557.25 664.425C559.492 663.534 561.573 662.052 563.625 660.783C568.144 657.988 572.498 654.882 576.752 651.698C587.206 643.873 597.667 635.822 607.261 626.95C620.974 614.269 633.371 600.021 645.339 585.712C648.808 581.565 652.463 577.285 655.513 572.824L662.119 562.077C679.409 535.134 692.203 506.049 701.812 475.545C705.066 465.217 708.182 454.924 710.29 444.286C713.339 428.894 714.427 413.387 715.394 397.767L716.356 373.231C716.353 370.098 716.524 366.245 715.972 363.188C715.357 359.785 715.776 356.201 715.701 352.737C715.685 352.008 715.301 351.496 715.291 350.744C715.269 348.978 715.55 346.974 715.172 345.254C714.865 343.856 715.009 342.427 714.733 341.012C714.322 338.913 714.498 336.751 714.483 334.609L714.017 334.929L713.971 339.562Z"/>
	<path fill="#A4161A" transform="scale(0.666667 0.666667)" d="M559.047 672.202C561.803 668.094 565.676 666.185 569.625 663.425L576.07 658.581C578.314 657.044 580.685 655.676 582.846 654.02L597.75 641.495L597.827 642.088L585.469 652.781C586.873 652.466 587.544 651.248 588.752 650.627C589.631 650.174 589.033 650.72 589.615 650.185C590.152 649.694 590.612 649.221 591.201 648.78L592.875 647.441L593.627 646.877L594.377 646.127C595.137 645.685 595.52 645.495 596.156 644.814C597.137 643.765 598.132 642.927 599.265 642.052L600.018 642.236C595.266 647.426 589.113 651.472 583.474 655.603C575.502 661.443 567.76 667.445 559.047 672.202Z"/>
	<path fill="#A4161A" transform="scale(0.666667 0.666667)" d="M508.144 695.832C509.251 695.503 510.492 695.221 511.508 694.681C519.399 690.486 527.93 687.498 535.933 683.496C542.309 680.307 548.344 676.004 554.791 673.094C555.995 672.55 557.089 672.561 558.389 672.581C546.823 679.894 534.401 686.06 521.979 691.788C518.605 693.344 514.632 695.513 511.03 696.377C504.979 699.525 497.411 702.413 490.819 704.178C492.361 701.797 495.059 700.967 497.584 699.955L508.144 695.832Z"/>
	<path fill="#A4161A" transform="scale(0.666667 0.666667)" d="M676.966 547.216C677.274 545.949 678.643 544.059 679.274 542.858C682.379 536.945 685.906 531.282 688.669 525.188L688.875 526.5L689.252 526.502C689.41 525.592 689.673 524.9 690.085 524.075L690.377 523.502L690.941 522.375L691.552 521.302C692.026 520.242 692.174 520.026 693.06 519.244C689.918 527.745 685.776 535.455 681.34 543.327L681.237 543.342C678.861 548.532 675.677 553.49 672.763 558.394C658.135 583.01 640.435 604.957 619.635 624.618C615.896 628.151 612.163 632.196 607.961 635.167C608.518 634.35 609.31 633.446 609.503 632.47C609.769 631.131 612.788 628.772 613.847 627.736L624.863 616.576L643.506 595.875C646.809 591.985 650.328 588.232 653.422 584.173C654.859 582.287 656.027 580.199 657.37 578.244L662.704 570.813C665.823 566.116 668.452 561.155 671.311 556.312L676.966 547.216Z"/>
	<defs>
		<linearGradient id="gradient_1" gradientUnits="userSpaceOnUse" x1="712.64301" y1="451.29266" x2="376.04575" y2="315.83215">
			<stop offset="0" stop-color="#730711"/>
			<stop offset="1" stop-color="#E24C6E"/>
		</linearGradient>
	</defs>
	<path fill="url(#gradient_1)" transform="scale(0.666667 0.666667)" d="M458.673 78.557C460.925 77.9084 464.133 79.3225 466.414 79.9517C472.124 81.5263 477.825 83.0098 483.419 84.9724C487.375 85.9043 491.295 87.6758 495.093 89.1225C521.878 99.3248 547.94 114.747 570.788 132.022C571.889 132.854 576.578 136.801 577.688 136.754C578.118 136.736 578.501 136.471 578.908 136.329C582.875 138.339 586.655 142.357 589.984 145.312C594.673 149.476 599.76 153.433 604.206 157.833L619.949 175.044L625.229 181.729C628.805 185.899 632.596 189.383 635.758 193.95C639.797 198.605 643.5 203.62 646.688 208.887C646.831 207.127 645 206.726 645.754 204.743L646.125 204.68C646.862 205.443 647.178 206.145 647.747 206.998L648.034 207.327C648.347 207.703 648.524 208.011 648.762 208.429C649.211 209.22 648.951 208.913 649.576 209.441L650.039 209.288C653.43 213.843 656.304 219.008 659.238 223.875C666.611 236.107 673.116 248.434 679.161 261.371C682.626 268.788 686.195 276.404 688.732 284.198C694.919 303.208 698.764 322.972 703.503 342.375L705.923 352.271C706.091 352.871 706.374 354.439 706.717 354.906C706.93 355.196 707.309 355.316 707.605 355.521C707.893 354.819 707.882 355.054 707.884 354.389C707.889 352.686 707.695 350.896 708.161 349.236C708.437 348.251 708.734 347.187 708.382 346.198C707.89 344.819 708.309 343.096 708.082 341.626C707.956 340.807 707.977 341.25 707.994 340.503L708.566 340.5C709.233 341.727 708.804 342.997 709.022 344.32L709.126 344.811C709.344 346.015 709.508 347.117 710.051 348.225L710.353 348.824C711.245 352.078 711.299 358.384 713.812 360.566L714.094 361.689C714.327 362.466 714.266 362.375 715.031 362.814L714.941 362.062C714.33 361.452 714.566 361.02 714.566 360.188L714.191 359.812L714.415 359.258C715.03 357.812 714.755 355.842 714.726 354.263L713.971 339.562L714.017 334.929L714.483 334.609C714.498 336.751 714.322 338.913 714.733 341.012C715.009 342.427 714.865 343.856 715.172 345.254C715.55 346.974 715.269 348.978 715.291 350.744C715.301 351.496 715.685 352.008 715.701 352.737C715.776 356.201 715.357 359.785 715.972 363.188C716.524 366.245 716.353 370.098 716.356 373.231L715.394 397.767C714.427 413.387 713.339 428.894 710.29 444.286C708.182 454.924 705.066 465.217 701.812 475.545C692.203 506.049 679.409 535.134 662.119 562.077L655.513 572.824C652.463 577.285 648.808 581.565 645.339 585.712C633.371 600.021 620.974 614.269 607.261 626.95C597.667 635.822 587.206 643.873 576.752 651.698C572.498 654.882 568.144 657.988 563.625 660.783C561.573 662.052 559.492 663.534 557.25 664.425C558.694 662.823 560.833 661.62 562.688 660.567C564.255 659.678 565.909 658.28 567.375 657.191L568.127 656.627C569.134 656.15 568.274 656.786 569.144 656.09L570.377 655.127C571.132 654.769 571.237 654.409 571.877 654.002L572.438 653.816C573.209 653.354 574.099 652.49 574.875 651.941L575.627 651.377C576.509 650.954 575.908 651.482 576.539 650.852C576.957 650.433 577.375 650.017 577.875 649.691C578.531 649.264 579.147 648.878 579.752 648.377L581.461 647.043L583.875 645.191L584.627 644.627L585.377 643.877C586.112 643.45 586.6 642.735 587.252 642.377C588.217 641.847 587.463 642.564 588.162 641.865C588.71 641.317 589.131 640.779 589.806 640.374C590.567 639.916 589.976 640.366 590.825 639.659L594.002 637.127C594.696 636.623 595.294 636.139 595.911 635.539L596.627 634.877C597.78 634.263 598.23 633.26 599.252 632.627C600.28 631.99 600.92 630.97 601.877 630.377C603.127 629.602 604.085 627.994 605.252 627.377C606.902 626.504 608.41 624.607 609.79 623.266L621.941 610.688C623.741 608.668 625.932 606.965 627.658 604.881L630.752 601.502C631.378 600.382 632.378 599.882 633.002 598.877C633.678 597.787 635.113 596.881 635.627 595.877L635.816 595.312C637.008 594.279 637.741 593.085 638.819 591.981L639.377 591.377C639.924 590.308 639.077 591.291 640.092 590.275C640.459 589.908 640.764 589.603 641.094 589.192L644.129 585.776L644.441 585.375L647.441 581.625L648.002 580.877L648.752 580.127C649.481 578.877 648.215 580.271 649.478 579.025C649.866 578.643 650.079 578.429 650.368 577.948C650.956 576.969 651.956 575.988 652.688 575.066L655.691 570.75C656.128 570.212 656.32 569.895 656.627 569.252C657.107 568.246 657.83 567.455 658.279 566.467C658.571 565.825 658.391 566.105 658.807 565.57C659.244 565.007 659.699 564.369 660.002 563.719L660.191 563.25L660.752 562.502C661.195 561.611 660.666 562.226 661.213 561.614C661.832 560.921 662.337 560.36 662.779 559.529C663.32 558.514 664.159 557.736 664.525 556.646L664.691 556.125L666.377 553.594L668.441 550.125L668.812 549.566L671.156 545.531L671.441 544.875C671.694 544.413 672.034 544.074 672.284 543.575L672.834 542.543L673.877 540.752L674.441 539.625C674.727 539.164 674.97 539.038 675.108 538.489L675.191 538.125L679.691 529.5L680.252 528.377C680.525 527.636 680.87 527.194 681.191 526.5C681.378 526.095 681.476 525.65 681.687 525.258C682.232 524.246 682.555 523.242 683.023 522.211L683.252 521.719L683.441 521.25C683.689 520.717 683.963 520.293 684.108 519.716L684.191 519.375C684.699 518.373 685.129 517.45 685.502 516.377L686.066 514.875L686.438 514.5C686.578 513.879 686.725 513.334 686.973 512.743L687.191 512.25L686.812 512.434C686.223 511.686 685.611 511.048 684.941 510.375C685.449 509.611 685.314 509.388 685.316 508.5C684.408 507.138 684.941 502.108 684.941 500.25C684.339 499.346 684.566 498.321 684.566 497.25C684.054 496.482 684.191 496.268 684.191 495.375C683.509 494.352 683.816 492.498 683.816 491.25C683.17 490.28 683.593 489.4 683.37 488.296C683.186 487.384 682.74 486.521 682.502 485.623C682.332 484.984 682.39 484.935 681.93 484.359L681.566 483.938C681.613 483.16 681.656 482.734 681.296 482.015L681.002 481.498L680.816 480.938L680.441 480.562C680.814 479.978 681.062 479.561 681.191 478.875L680.066 478.312L679.688 479.25L679.312 480.184C679.072 481.348 678.553 482.631 678.092 483.75L677.812 484.309L677.717 484.875C677.513 485.386 677.147 486.268 676.875 486.75C676.37 487.647 676.598 486.955 676.352 487.77L675.188 491.059L674.998 491.623C674.346 492.927 674.992 491.251 674.595 492.317L674.438 492.75C674.186 493.368 673.909 493.937 673.716 494.578L673.592 495L673.312 495.559L673.309 495.938C672.85 496.656 672.291 497.507 672.188 498.375L672.184 498.938C671.669 499.351 671.529 499.576 671.438 500.25L671.434 500.812L670.875 501.188L670.592 502.125L670.312 502.684L670.309 503.062C669.442 504.477 669.066 505.965 668.342 507.375C668.183 507.684 667.954 507.955 667.799 508.266L667.5 508.875L666.938 510C666.541 510.978 666.193 511.86 665.719 512.811L665.25 513.75C664.763 514.557 664.958 514.019 664.727 514.781C664.545 515.386 664.65 515.187 664.312 515.809C663.407 517.475 662.716 519.321 661.688 520.875L661.684 521.438C660.973 522.311 660.475 523.232 660 524.25L658.875 526.5C658.58 526.957 658.344 527.091 658.207 527.637L658.125 528L656.625 530.625L655.781 532.031L654.732 533.854L653.531 535.781L652.506 537.568L649.125 543L648.531 543.963L648.36 544.293L647.395 544.381L666.341 509.686C675.898 489.957 683.244 468.933 687.874 447.52C692.371 426.723 694.418 404.907 694.602 383.649C695.016 335.816 685.487 287.527 663.357 244.846C657.675 233.887 650.827 223.17 643.835 212.996C641.252 209.238 638.125 205.653 635.72 201.819L635.389 201.283C634.153 200.201 632.961 198.65 632.094 197.251L611.894 173.928L593.348 155.764C593.084 155.759 576.776 142.195 575.515 140.908C564.595 131.645 552.178 123.74 539.925 116.363L511.094 101.096L477.484 88.2644C474.444 87.5076 471.569 85.5332 468.484 84.5689L466.471 82.6879L458.673 78.557Z"/>
	<path fill="#E5383B" transform="scale(0.666667 0.666667)" d="M458.673 78.557C460.925 77.9084 464.133 79.3225 466.414 79.9517C472.124 81.5263 477.825 83.0098 483.419 84.9724L482.681 85.0492C481.794 85.1221 481.475 84.9223 480.722 84.5376C480.107 84.2236 479.527 84.3451 478.893 84.1698L477.751 83.6243L476.531 83.3438C474.565 82.8726 472.502 81.8537 470.462 81.9445L470.812 82.875L471.223 82.9395C471.951 83.0852 471.55 82.9857 472.159 83.291C473.174 83.7995 474.227 83.8507 475.312 84.375L476.25 84.5625L477.375 85.125L478.628 85.5599L482.25 86.8125L483.375 87.375L484.688 87.75C485.284 87.9231 485.721 88.0669 486.243 88.3997L485.755 88.7035C481.149 87.1093 476.606 85.2485 471.937 83.8765C470.108 83.3388 468.4 82.694 466.471 82.6879L458.673 78.557Z"/>
	<path fill="#BA181B" transform="scale(0.666667 0.666667)" d="M593.348 155.764L594.186 155.439L594.413 155.721C595.115 156.576 595.638 156.926 596.531 157.558L597.891 158.809L598.031 158.344L595.651 155.898L595.875 155.684L613.101 172.753C618.632 178.099 623.422 184.076 628.397 189.92C630.112 191.934 633.146 194.531 634.027 196.925C632.93 195.956 631.328 194.776 630.675 193.461C630.081 192.263 628.694 191.753 628.084 190.482C627.702 189.684 626.896 189.088 626.25 188.496L625.952 188.515C626.212 189.252 626.476 189.373 627.019 189.888C627.402 190.251 627.401 190.54 627.656 190.969L629.996 193.677C630.439 194.124 630.226 193.864 630.511 194.391C631.2 195.668 632.201 195.603 632.094 197.251L611.894 173.928L593.348 155.764Z"/>
	<path fill="#BA181B" transform="scale(0.666667 0.666667)" d="M466.471 82.6879C468.4 82.694 470.108 83.3388 471.937 83.8765C476.606 85.2485 481.149 87.1093 485.755 88.7035C489.341 90.3133 510.732 97.5596 512.008 99.5985C517.7 101.841 523.063 105.078 528.438 107.98C532.39 110.114 536.651 111.968 540.336 114.552C549.128 119.529 557.65 125.439 565.875 131.306C569.238 133.704 573.261 136.094 575.899 139.312L575.515 140.908C564.595 131.645 552.178 123.74 539.925 116.363L511.094 101.096L477.484 88.2644C474.444 87.5076 471.569 85.5332 468.484 84.5689L466.471 82.6879Z"/>
	<defs>
		<linearGradient id="gradient_2" gradientUnits="userSpaceOnUse" x1="410.98978" y1="405.24326" x2="53.906647" y2="301.13287">
			<stop offset="0" stop-color="#E7D3D6"/>
			<stop offset="1" stop-color="white"/>
		</linearGradient>
	</defs>
	<path fill="url(#gradient_2)" transform="scale(0.666667 0.666667)" d="M238.06 686.881L237.375 686.714C234.916 685.855 232.357 684.307 230.013 683.137L208.615 671.185C200.554 666.181 192.401 661.087 184.801 655.397C148.612 628.306 117.77 593.014 94.4471 554.356C85.5426 539.597 78.4114 523.918 72.2436 507.845C60.6844 477.723 53.0736 446.249 49.7528 414.126C48.2019 399.123 47.8912 384.249 47.9286 369.185C47.9883 345.085 49.7791 320.894 55.6645 297.447C59.5549 281.949 64.0391 266.603 70.0064 251.76C81.6683 222.753 97.6106 195.582 116.726 170.885C133.906 148.687 153.13 128.872 175.784 112.218C201.959 92.9768 231.795 78.2871 262.09 66.7591C271.727 63.092 281.891 59.9907 291.917 57.6285L312.344 53.1151C320.122 51.4775 327.515 50.7942 334.459 46.6389L322.214 59.3392C320.078 61.59 317.789 65.0841 315.142 66.6497C312.448 68.2429 308.75 68.721 305.7 69.4486L287.993 73.5857C266.081 79.062 245.154 87.6837 225.21 98.211C214.449 103.891 204.029 109.773 193.977 116.652C156.548 142.269 126.331 176.28 103.073 215.048C96.1889 226.524 89.7686 238.23 84.486 250.542C61.4226 304.291 54.0926 363.878 61.7655 421.756C63.334 433.587 65.3378 445.603 68.237 457.181L75.8704 482.987C78.7545 491.961 81.6726 500.795 85.3278 509.498C105.283 557.013 136.794 600.689 176.573 633.556C192.826 646.984 210.346 658.063 228.382 668.859C239.527 674.403 250.464 679.807 262.091 684.309C264.287 685.16 266.944 686.498 269.204 686.903L274.092 689.003L292.831 695.435C298.2 697.269 303.619 698.839 308.779 701.239C310.651 702.11 312.24 703.447 314.04 704.451L321.271 708.137L323.375 709.234C326.431 710.478 332.057 712.931 333.938 715.703L333.188 716.4L330.166 716.218L290.359 706.681C277.738 703.262 265.319 698.58 253.24 693.6C248.323 691.573 242.521 689.74 238.06 686.881Z"/>
	<path fill="#D3D3D3" transform="scale(0.666667 0.666667)" d="M238.06 686.881L240.375 687.32C241.313 687.466 242.049 688.117 243 688.408L243.75 688.691L244.229 688.872C245.468 689.366 243.762 688.68 245.25 689.441L246.375 689.816C247.701 690.264 248.749 690.959 250.125 691.316C250.662 691.455 251.152 691.748 251.638 692C252.281 692.333 252.833 692.441 253.498 692.684L255.75 693.566L257.174 694.09C258.688 694.595 259.851 695.579 261.5 695.565C262.373 696.44 262.91 696.232 264.116 696.295L263.959 696.807C264.863 697.228 265.407 697.364 266.401 697.44L266.642 697.73C267.211 698.325 267.715 698.402 268.499 698.484C269.321 698.571 269.324 698.883 270 699.191C270.823 699.566 271.328 699.483 272.062 700.125L272.753 700.06L273.275 700.368C273.952 700.729 274.317 700.78 275.061 700.81L276.188 701.625L276.9 700.615C276.771 700.031 276.851 699.97 276.382 699.557L275.441 698.654L274.408 697.793L277.643 698.52L277.771 697.94C276.73 697.539 275.748 696.915 274.671 696.636C273.673 696.378 273.757 695.502 272.448 695.293L272.934 694.781L272.455 694.312C271.61 693.671 271.006 693.237 270.255 692.419L280.96 697.189C292.473 702.314 303.474 706.218 315.938 708.336C318.414 708.757 320.847 709.364 323.375 709.234C326.431 710.478 332.057 712.931 333.938 715.703L333.188 716.4L330.166 716.218L290.359 706.681C277.738 703.262 265.319 698.58 253.24 693.6C248.323 691.573 242.521 689.74 238.06 686.881Z"/>
	<defs>
		<linearGradient id="gradient_3" gradientUnits="userSpaceOnUse" x1="644.56958" y1="213.86798" x2="118.23296" y2="548.40997">
			<stop offset="0" stop-color="#B4A9A9"/>
			<stop offset="1" stop-color="white"/>
		</linearGradient>
	</defs>
	<path fill="url(#gradient_3)" transform="scale(0.666667 0.666667)" d="M186.274 624.531L178.482 618.188C175.925 616.213 173.244 614.517 170.807 612.347C164.27 606.529 158.195 600.091 152.302 593.625C132.883 572.319 117.444 549.168 105.087 523.111C92.1351 495.802 82.8387 466.805 77.6585 437.01C74.8903 421.089 73.7758 404.79 73.3432 388.65C72.2737 348.749 76.2729 309.745 89.8003 271.977C96.7286 252.633 106.206 234.55 117.184 217.217C139.252 182.375 167.687 151.109 201.433 127.223C213.091 118.97 226.207 111.662 239.062 105.421C250.174 100.027 261.839 95.3555 273.604 91.581C281.162 89.1559 289.304 87.5433 296.477 84.1541C294.709 85.9955 292.904 87.8263 291.603 90.0401C288.793 94.8233 288.984 99.9273 289.06 105.262L293.283 96.1875C295.174 92.9988 298.229 89.4742 301.584 87.8626C303.128 87.1211 304.997 86.7388 306.651 86.2952C300.447 91.4736 295.381 98.1487 292.346 105.668C290.799 109.502 289.844 113.629 288.732 117.608C287.911 132.709 288.974 148.114 290.059 163.184L291.127 173.511C291.275 174.511 292.163 177.54 291.965 178.386L292.479 181.688C291.858 182.321 292.224 182.097 291.384 182.364C289.342 182.618 287.83 182.717 286.491 184.408C283.924 187.651 284.154 195.642 283.887 199.679L284.115 202.243C284.206 202.961 284.505 203.294 284.855 203.888C286.496 206.67 287.589 210.791 287.686 213.986C288.579 214.368 289.483 214.707 290.28 215.272C290.64 212.085 290.102 208.701 289.95 205.5L289.454 192.562C289.334 190.93 288.731 189.15 288.831 187.537C288.879 186.755 289.278 185.961 289.604 185.259L290.252 184.877L290.441 184.312C291.321 183.546 292.869 183.612 294.006 183.51C301.224 182.469 308.967 182.901 316.268 182.888L341.504 182.64C342.369 183.135 342.805 183.232 343.801 183.294C344.826 183.358 345.208 183.556 346.075 184.071C347.757 185.069 349.633 184.958 351.531 185.064C352.139 185.098 351.916 185.081 352.612 185.237L371.239 186.681C376.263 187.249 381.328 188.411 386.398 188.296C393.915 188.126 401.346 185.913 408.856 185.544C409.431 185.161 410.265 185.28 410.95 185.247C414.405 185.08 415.947 185.32 418.446 182.675C419.611 182.643 420.386 182.547 421.454 182.067L462.119 183.044L471.985 183.555C473.478 183.665 474.99 184.14 476.309 183.401L476.672 182.622C475.919 182.046 476.065 181.97 475.858 181.094C475.671 180.653 475.575 180.298 475.61 179.814L477.559 158.744L478.574 140.243C478.723 137.519 478.509 133.727 479.438 131.195C480.151 130.915 481.121 130.596 481.626 129.995C483.595 127.656 482.468 120.802 482.053 117.984C481.152 116.764 480.446 115.392 479.698 114.074C479.25 113.898 477.587 111.146 477.096 110.568C476.122 109.424 475.119 108.498 473.938 107.576L473.551 107.28L480.613 100.599C481.699 99.8894 481.777 99.6376 482.323 98.5131C482.965 98.2707 483.251 98.2045 483.72 97.6829C484.035 96.811 483.945 95.9594 483.761 95.0639C483.328 92.9476 480.895 91.6167 479.25 90.4935C478.548 90.0139 478.086 89.7017 477.735 88.8894L477.484 88.2644L511.094 101.096L539.925 116.363C552.178 123.74 564.595 131.645 575.515 140.908C576.776 142.195 593.084 155.759 593.348 155.764L611.894 173.928L632.094 197.251C632.961 198.65 634.153 200.201 635.389 201.283L635.72 201.819C638.125 205.653 641.252 209.238 643.835 212.996C650.827 223.17 657.675 233.887 663.357 244.846C685.487 287.527 695.016 335.816 694.602 383.649C694.418 404.907 692.371 426.723 687.874 447.52C683.244 468.933 675.898 489.957 666.341 509.686L647.395 544.381C639.645 555.622 631.942 567.841 622.587 577.814C620.223 581.085 617.45 584.076 614.81 587.125C608.279 594.667 601.423 601.68 594.179 608.527C566.172 634.999 532.907 656.298 496.875 670.009C486.181 674.079 475.348 677.028 464.283 679.889C451.312 683.243 438.442 686.215 425.201 688.349C385.214 694.791 343.724 692.571 304.425 683.008C278.059 676.593 252.201 666.746 228.864 652.78L228.849 652.764C224.323 651.116 219.865 648.022 215.748 645.491C205.789 639.369 194.627 632.742 186.274 624.531Z"/>
	<path fill="#B1A7A6" transform="scale(0.666667 0.666667)" d="M479.698 114.074C480.845 114.47 481.475 114.879 482.353 115.724C484.648 117.933 489.816 119.45 492.825 120.672C493.65 121.007 495.326 121.498 495.938 122.066C496.031 122.153 496.61 123.273 496.688 123.331C497.29 123.785 499.389 123.986 500.225 124.312C501.198 124.693 502.076 125.275 503.024 125.717C503.672 126.02 504.211 126.374 504.817 126.75C505.822 127.374 506.467 127.635 507.096 128.716L482.053 117.984C481.152 116.764 480.446 115.392 479.698 114.074Z"/>
	<path fill="#B1A7A6" transform="scale(0.666667 0.666667)" d="M186.274 624.531C187.312 624.734 188.25 624.95 189.176 625.481C195.022 628.833 200.261 633.192 205.845 636.938L219.375 645.679C221.887 647.223 226.828 649.343 228.344 651.763L228.849 652.764C224.323 651.116 219.865 648.022 215.748 645.491C205.789 639.369 194.627 632.742 186.274 624.531Z"/>
	<path fill="#BA181B" transform="scale(0.666667 0.666667)" d="M369.608 498.964L369.887 502.098C371.117 501.736 372.158 499.362 373.466 498.549C376.783 496.487 387.136 493.245 390.789 495.142C391.571 495.548 392.128 496.925 392.296 497.722L392.632 499.875L392.999 502.116L385.029 502.137L382.624 561.027L381.64 575.201C381.498 576.708 380.752 579.096 380.897 580.496C381.079 582.256 382.982 585.025 383.882 586.603C386.06 590.426 388.264 594.26 389.996 598.312C394.71 609.345 397.725 621.203 401.969 632.451L410.519 653.872C412.028 657.654 413.796 661.413 414.793 665.367C408.894 666.192 402.832 666.528 396.892 666.956C387.119 667.659 377.246 668.169 367.448 667.749L338.66 665.452L356.035 561.941L364.669 526.003C366.057 520.284 367.785 514.401 368.766 508.612C369.304 505.437 369.415 502.174 369.608 498.964Z"/>
	<path fill="#660708" transform="scale(0.666667 0.666667)" d="M353.595 421.476C356.651 416.917 359.65 411.54 363.455 407.614C366.747 409.224 370.068 410.957 373.101 413.023C374.726 414.129 378.812 418.588 380.552 418.731C381.699 418.825 384.376 417.829 385.533 417.429C390.959 415.552 395.736 411.25 400.327 407.871C404.508 412.281 408.119 417.293 411.747 422.16L426.701 443.158C425.907 445.129 425.309 446.724 425.215 448.875C423.757 450.827 422.446 451.465 420.156 452.147C419.219 452.426 417.697 452.702 416.935 453.323C416.247 453.884 416.473 454.541 415.498 455.036L414.486 455.346C410.188 463.92 405.383 472.499 401.755 481.375C400.745 483.844 399.895 486.313 399.13 488.867C398.51 490.938 398.17 493.002 396.779 494.671C396.035 495.563 396.553 497.118 396.778 498.188C397.996 503.966 399.957 509.688 401.565 515.378L409.502 544.875L418.312 581.119L423.562 608.893C426.976 626.785 430.156 644.686 432.013 662.82C430.696 663.514 428.436 663.434 426.938 663.631L414.793 665.367C413.796 661.413 412.028 657.654 410.519 653.872L401.969 632.451C397.725 621.203 394.71 609.345 389.996 598.312C388.264 594.26 386.06 590.426 383.882 586.603C382.982 585.025 381.079 582.256 380.897 580.496C380.752 579.096 381.498 576.708 381.64 575.201L382.624 561.027L385.029 502.137L392.999 502.116L392.632 499.875L392.296 497.722C392.128 496.925 391.571 495.548 390.789 495.142C387.136 493.245 376.783 496.487 373.466 498.549C372.158 499.362 371.117 501.736 369.887 502.098L369.608 498.964L369.744 497.152C369.626 490.058 368.539 482.331 366.203 475.613C363.493 467.823 359.058 460.435 354.755 453.429C353.32 451.37 351.027 449.696 349.348 447.79C347.569 445.769 346.193 443.209 344.286 441.35C343.752 440.829 343.042 440.506 342.347 440.264C344.94 433.485 349.539 427.444 353.595 421.476Z"/>
	<path fill="#BA181B" transform="scale(0.666667 0.666667)" d="M353.595 421.476C353.634 422.406 353.464 424.044 354.079 424.692C356.291 427.024 358.136 429.68 360.061 432.245L373.625 451.777C377.692 457.785 382.508 463.591 385.39 470.291C386.954 473.925 387.578 477.372 387.456 481.31C387.381 483.741 387.186 486.298 386.506 488.64C381.548 490.196 374.797 491.588 371.276 495.562C370.788 496.112 370.3 496.674 369.744 497.152C369.626 490.058 368.539 482.331 366.203 475.613C363.493 467.823 359.058 460.435 354.755 453.429C353.32 451.37 351.027 449.696 349.348 447.79C347.569 445.769 346.193 443.209 344.286 441.35C343.752 440.829 343.042 440.506 342.347 440.264C344.94 433.485 349.539 427.444 353.595 421.476Z"/>
	<path fill="#E5383B" transform="scale(0.666667 0.666667)" d="M288.732 117.608C287.911 132.709 288.974 148.114 290.059 163.184L291.127 173.511C291.275 174.511 292.163 177.54 291.965 178.386L292.479 181.688C291.858 182.321 292.224 182.097 291.384 182.364C289.342 182.618 287.83 182.717 286.491 184.408C283.924 187.651 284.154 195.642 283.887 199.679L284.115 202.243C284.206 202.961 284.505 203.294 284.855 203.888C286.496 206.67 287.589 210.791 287.686 213.986C288.579 214.368 289.483 214.707 290.28 215.272C290.312 220.642 289.733 226.34 293.67 230.622C292.44 232.18 290.301 233.098 288.657 234.188C286.62 235.536 284.682 237.071 282.773 238.594C272.046 247.148 261.524 256.638 253.359 267.731C247.289 263.563 241.261 258.875 234.574 255.779C231.524 257.818 228.963 259.916 225.222 260.429C224.574 260.518 224.135 260.781 223.577 261.103L211.767 253.055L207.534 250.166C206.997 249.763 207.215 249.911 206.533 249.586C203.629 252.601 201.168 255.979 198.745 259.383C197.617 260.968 196.223 262.647 195.512 264.455C194.509 265.987 192.371 268.484 192.136 270.206C189.253 272.613 186.943 277.603 185.539 281.05L185.66 281.554C183.354 283.972 183.931 288.9 181.906 291.584C180.047 295.082 178.464 298.677 176.912 302.318C176.214 303.955 175.236 305.761 174.845 307.483C172.967 309.414 172.484 313.197 171.738 315.75C171.223 317.513 170.358 319.525 170.337 321.346L166.394 339.225C164.837 340.914 164.906 347.67 164.812 350.086L165.673 350.689L164.812 351.326L163.802 367.733C162.732 371.511 163.188 376.142 163.229 380.062C163.987 380.855 165.131 380.62 166.204 380.678L173.192 380.523L173.632 395.459L165.018 396.392L163.944 396.938C163.81 399.91 163.647 406.521 165.764 408.751C166.217 409.228 166.951 409.125 167.566 409.192L166.859 409.875C167.226 412.894 167.86 415.991 168.759 418.895L168.842 419.192L168.329 419.503C167.021 420.266 165.304 420.583 163.86 421.024C161.697 421.685 159.551 422.472 157.483 423.385L140.99 504.054C140.691 504.416 140.238 505.154 139.875 505.404C138.24 506.529 132.363 505.679 132.355 508.312C132.351 509.749 132.806 510.608 132.485 512.16C127.964 505.298 125.347 497.899 122.629 490.206L115.6 467.642C111.914 455.207 108.469 442.446 106.33 429.64C97.8088 378.624 104.282 324.662 122.768 276.504C125.792 268.625 129.496 260.98 133.139 253.371C145.839 226.841 164.107 203.583 184.88 182.921C195.543 172.315 206.594 162.386 218.827 153.609C225.654 148.71 232.961 144.58 240.15 140.251C247.875 135.6 255.599 130.972 263.777 127.147C271.918 123.34 280.276 120.589 288.732 117.608Z"/>
	<path fill="#D3D3D3" transform="scale(0.666667 0.666667)" d="M166.204 380.678L173.192 380.523L173.632 395.459L165.018 396.392L164.387 395.905L163.559 385.491C163.48 384.145 163.161 382.4 163.582 381.107L166.204 380.678Z"/>
	<path fill="#D3D3D3" transform="scale(0.666667 0.666667)" d="M249.538 204.492L249.684 203.98C252.79 201.014 256.246 198.621 259.754 196.164C266.832 191.209 273.994 186.972 281.625 182.959C284.738 181.322 288.435 178.815 291.965 178.386L292.479 181.688C291.858 182.321 292.224 182.097 291.384 182.364C289.342 182.618 287.83 182.717 286.491 184.408C283.924 187.651 284.154 195.642 283.887 199.679C274.295 204.173 265.573 210.158 256.936 216.245L256.801 215.871L256.569 215.25C255.095 211.196 252.137 207.882 249.538 204.492Z"/>
	<path fill="#660708" transform="scale(0.666667 0.666667)" d="M283.887 199.679L284.115 202.243C284.206 202.961 284.505 203.294 284.855 203.888C286.496 206.67 287.589 210.791 287.686 213.986C288.579 214.368 289.483 214.707 290.28 215.272C290.312 220.642 289.733 226.34 293.67 230.622C292.44 232.18 290.301 233.098 288.657 234.188C286.62 235.536 284.682 237.071 282.773 238.594C272.046 247.148 261.524 256.638 253.359 267.731C247.289 263.563 241.261 258.875 234.574 255.779C231.524 257.818 228.963 259.916 225.222 260.429C224.574 260.518 224.135 260.781 223.577 261.103L211.767 253.055C211.835 249.137 212.935 244.205 214.195 240.461C216.024 237.289 219.067 234.577 221.608 231.976C222.336 229.59 225.317 226.968 226.999 225.132L229.028 225.061C229.74 223.56 231.326 222.256 232.517 221.103L238.88 214.989L238.979 214.318C241.865 210.62 245.739 207.247 249.538 204.492C252.137 207.882 255.095 211.196 256.569 215.25L256.801 215.871L256.936 216.245C265.573 210.158 274.295 204.173 283.887 199.679Z"/>
	<path fill="#D3D3D3" transform="scale(0.666667 0.666667)" d="M221.608 231.976C224.046 234.624 226.696 236.787 229.56 238.953L229.203 239.207C226.454 241.247 224.392 244.143 222.024 246.594L221.611 246.084C219.521 243.54 216.983 242.121 214.195 240.461C216.024 237.289 219.067 234.577 221.608 231.976Z"/>
	<path fill="#A4161A" transform="scale(0.666667 0.666667)" d="M221.608 231.976C222.336 229.59 225.317 226.968 226.999 225.132L229.028 225.061C231.89 226.867 234.497 229.166 235.653 232.449C234.438 234.611 231.747 237.818 229.56 238.953C226.696 236.787 224.046 234.624 221.608 231.976Z"/>
	<path fill="#D3D3D3" transform="scale(0.666667 0.666667)" d="M238.88 214.989L247.266 223.297L236.426 232.704L235.653 232.449C234.497 229.166 231.89 226.867 229.028 225.061C229.74 223.56 231.326 222.256 232.517 221.103L238.88 214.989Z"/>
	<path fill="#A4161A" transform="scale(0.666667 0.666667)" d="M238.88 214.989L238.979 214.318C241.865 210.62 245.739 207.247 249.538 204.492C252.137 207.882 255.095 211.196 256.569 215.25L256.801 215.871L256.936 216.245C255.206 219.226 250.221 221.465 247.266 223.297L238.88 214.989Z"/>
	<path fill="#D3D3D3" transform="scale(0.666667 0.666667)" d="M234.574 255.779C236.792 254.069 238.839 251.862 240.879 249.938L253.501 238.088C261.11 231.102 269.545 225.065 278.108 219.317C280.699 217.578 284.562 214.356 287.686 213.986C288.579 214.368 289.483 214.707 290.28 215.272C290.312 220.642 289.733 226.34 293.67 230.622C292.44 232.18 290.301 233.098 288.657 234.188C286.62 235.536 284.682 237.071 282.773 238.594C272.046 247.148 261.524 256.638 253.359 267.731C247.289 263.563 241.261 258.875 234.574 255.779Z"/>
	<path fill="#161A1D" transform="scale(0.666667 0.666667)" d="M168.842 419.192C172.115 418.131 175.686 417.71 179.062 417.021L194.99 413.541C218.827 408.117 242.62 401.391 265.72 393.365C271.269 391.437 277.493 389.829 282.422 386.583C285.951 384.259 289.125 381.241 292.279 378.432L313.255 358.394C311.459 363.753 310.771 368.524 310.118 374.12C308.832 385.137 309.138 395.264 311.648 406.125C312.579 410.153 314.198 413.93 315.271 417.905L331.279 464.002C336.018 456.836 338.768 448.068 342.347 440.264C343.042 440.506 343.752 440.829 344.286 441.35C346.193 443.209 347.569 445.769 349.348 447.79C351.027 449.696 353.32 451.37 354.755 453.429L329.795 471.18C328.99 466.673 327.27 462.245 325.861 457.889C321.733 445.133 316.539 432.65 312.956 419.729L308.966 410.05L333.398 663.404C328.956 661.981 324.38 661.133 319.897 659.841L285.833 648.732C272.243 643.698 258.692 638.196 245.856 631.444C232.206 624.263 219.272 615.709 207.064 606.299C180.605 585.902 158.445 561.855 143.084 532.017L135.011 516.897L132.485 512.16C132.806 510.608 132.351 509.749 132.355 508.312C132.363 505.679 138.24 506.529 139.875 505.404C140.238 505.154 140.691 504.416 140.99 504.054L157.483 423.385C159.551 422.472 161.697 421.685 163.86 421.024C165.304 420.583 167.021 420.266 168.329 419.503L168.842 419.192Z"/>
	<path fill="#660708" transform="scale(0.666667 0.666667)" d="M132.485 512.16C132.806 510.608 132.351 509.749 132.355 508.312C132.363 505.679 138.24 506.529 139.875 505.404C140.238 505.154 140.691 504.416 140.99 504.054C140.48 506.784 139.661 509.331 138.244 511.741C137.176 513.557 135.89 514.93 135.011 516.897L132.485 512.16Z"/>
	<path fill="#161A1D" transform="scale(0.666667 0.666667)" d="M482.053 117.984L507.096 128.716C514.095 132.344 521.226 136.122 527.901 140.322C544.103 150.516 558.924 162.483 572.933 175.484C580.946 182.921 588.9 190.576 596.098 198.818C618.921 224.949 636.608 255.87 647.25 288.938C654.722 312.155 658.673 335.507 660.677 359.768C661.474 369.409 662.21 379.296 661.941 388.971L657.689 442.381C657.385 443.742 656.05 449.231 656.404 450.287C652.957 465.36 648.461 479.824 643.083 494.309C641.833 497.674 640.557 500.903 638.98 504.135C638.335 505.457 637.816 506.787 636.79 507.866L628.745 523.577L628.258 524.957C627.99 525.075 627.532 526.077 627.357 526.384L622.474 535.211C615.832 547.23 607.86 558.785 598.587 568.915C573.26 596.582 542.273 620.068 508.542 636.495C493.984 643.585 478.178 649.506 462.866 654.758L436.391 662.717L444.889 592.565L451.262 535.874L453.583 472.101L454.371 453.729C454.843 446.837 455.514 439.897 455.185 432.988C452.546 437.568 451.467 443.645 449.838 448.688L441.554 473.837C438.146 471.393 435.216 468.266 432.011 465.562C426.989 461.327 421.37 457.952 415.498 455.036C416.473 454.541 416.247 453.884 416.935 453.323C417.697 452.702 419.219 452.426 420.156 452.147C422.446 451.465 423.757 450.827 425.215 448.875C425.309 446.724 425.907 445.129 426.701 443.158L411.747 422.16C408.119 417.293 404.508 412.281 400.327 407.871C395.736 411.25 390.959 415.552 385.533 417.429C384.376 417.829 381.699 418.825 380.552 418.731C378.812 418.588 374.726 414.129 373.101 413.023C370.068 410.957 366.747 409.224 363.455 407.614C359.65 411.54 356.651 416.917 353.595 421.476C349.539 427.444 344.94 433.485 342.347 440.264C338.768 448.068 336.018 456.836 331.279 464.002L315.271 417.905C314.198 413.93 312.579 410.153 311.648 406.125C309.138 395.264 308.832 385.137 310.118 374.12C310.771 368.524 311.459 363.753 313.255 358.394L292.279 378.432C289.125 381.241 285.951 384.259 282.422 386.583C277.493 389.829 271.269 391.437 265.72 393.365C242.62 401.391 218.827 408.117 194.99 413.541L179.062 417.021C175.686 417.71 172.115 418.131 168.842 419.192L168.759 418.895C167.86 415.991 167.226 412.894 166.859 409.875L167.566 409.192C166.951 409.125 166.217 409.228 165.764 408.751C163.647 406.521 163.81 399.91 163.944 396.938L165.018 396.392L173.632 395.459L173.192 380.523L166.204 380.678C165.131 380.62 163.987 380.855 163.229 380.062C163.188 376.142 162.732 371.511 163.802 367.733L164.812 351.326L165.673 350.689L164.812 350.086C164.906 347.67 164.837 340.914 166.394 339.225L170.337 321.346C170.358 319.525 171.223 317.513 171.738 315.75C172.484 313.197 172.967 309.414 174.845 307.483C175.236 305.761 176.214 303.955 176.912 302.318C178.464 298.677 180.047 295.082 181.906 291.584C183.931 288.9 183.354 283.972 185.66 281.554L185.539 281.05C186.943 277.603 189.253 272.613 192.136 270.206C192.371 268.484 194.509 265.987 195.512 264.455C196.223 262.647 197.617 260.968 198.745 259.383C201.168 255.979 203.629 252.601 206.533 249.586C207.215 249.911 206.997 249.763 207.534 250.166L211.767 253.055L223.577 261.103C224.135 260.781 224.574 260.518 225.222 260.429C228.963 259.916 231.524 257.818 234.574 255.779C241.261 258.875 247.289 263.563 253.359 267.731C261.524 256.638 272.046 247.148 282.773 238.594C284.682 237.071 286.62 235.536 288.657 234.188C290.301 233.098 292.44 232.18 293.67 230.622C289.733 226.34 290.312 220.642 290.28 215.272C290.64 212.085 290.102 208.701 289.95 205.5L289.454 192.562C289.334 190.93 288.731 189.15 288.831 187.537C288.879 186.755 289.278 185.961 289.604 185.259L290.252 184.877L290.441 184.312C291.321 183.546 292.869 183.612 294.006 183.51C301.224 182.469 308.967 182.901 316.268 182.888L341.504 182.64C342.369 183.135 342.805 183.232 343.801 183.294C344.826 183.358 345.208 183.556 346.075 184.071C347.757 185.069 349.633 184.958 351.531 185.064C352.139 185.098 351.916 185.081 352.612 185.237L371.239 186.681C376.263 187.249 381.328 188.411 386.398 188.296C393.915 188.126 401.346 185.913 408.856 185.544C409.431 185.161 410.265 185.28 410.95 185.247C414.405 185.08 415.947 185.32 418.446 182.675C419.611 182.643 420.386 182.547 421.454 182.067L462.119 183.044L471.985 183.555C473.478 183.665 474.99 184.14 476.309 183.401L476.672 182.622C475.919 182.046 476.065 181.97 475.858 181.094C475.671 180.653 475.575 180.298 475.61 179.814L477.559 158.744L478.574 140.243C478.723 137.519 478.509 133.727 479.438 131.195C480.151 130.915 481.121 130.596 481.626 129.995C483.595 127.656 482.468 120.802 482.053 117.984Z"/>
	<path fill="#BA181B" transform="scale(0.666667 0.666667)" d="M465.84 238.927C465.699 237.093 466.08 232.035 467.062 230.64L469.942 231.248C471.284 231.801 472.031 231.869 473.466 231.698L472.61 236.621C472.003 237.902 471.623 238.714 470.438 239.527C468.799 239.603 467.466 238.851 465.84 238.927Z"/>
	<path fill="#660708" transform="scale(0.666667 0.666667)" d="M623.816 502.75C628.426 503.765 632.819 505.264 636.79 507.866L628.745 523.577L627.623 522.843C626.036 521.666 626.016 519.567 625.69 517.754C625.133 514.652 624.434 511.443 624.145 508.312C623.984 506.563 624.133 504.866 623.873 503.11L623.816 502.75Z"/>
	<path fill="#660708" transform="scale(0.666667 0.666667)" d="M294.006 183.51C301.224 182.469 308.967 182.901 316.268 182.888L341.504 182.64C342.369 183.135 342.805 183.232 343.801 183.294C344.826 183.358 345.208 183.556 346.075 184.071C347.757 185.069 349.633 184.958 351.531 185.064C352.139 185.098 351.916 185.081 352.612 185.237C348.093 185.549 343.772 186.616 339.204 186.767L315.425 186.618C308.218 186.59 301.77 186.669 294.877 188.902C294.598 198.871 296.318 209.308 297.497 219.188C297.886 222.442 299.057 226.39 298.632 229.608L298.92 230.06C297.301 230.774 296.175 231.064 294.401 231.004L293.67 230.622C289.733 226.34 290.312 220.642 290.28 215.272C290.64 212.085 290.102 208.701 289.95 205.5L289.454 192.562C289.334 190.93 288.731 189.15 288.831 187.537C288.879 186.755 289.278 185.961 289.604 185.259L290.252 184.877L290.441 184.312C291.321 183.546 292.869 183.612 294.006 183.51Z"/>
	<path fill="#660708" transform="scale(0.666667 0.666667)" d="M421.454 182.067L462.119 183.044L471.985 183.555C473.478 183.665 474.99 184.14 476.309 183.401L476.672 182.622C479.484 183.207 481.274 183.953 482.851 186.512C484.784 189.65 485.102 193.891 484.136 197.385L482.669 202.179L481.58 210.94C481.496 211.875 481.64 213.656 481.355 214.437C481.211 214.832 480.679 215.304 480.363 215.558C479.422 215.854 478.349 215.883 477.948 216.882C477.576 217.81 477.638 219.153 477.561 220.148C477.196 224.922 476.292 227.459 473.694 231.521L473.466 231.698C472.031 231.869 471.284 231.801 469.942 231.248L470.505 230.799C471.165 229.084 469.989 226.319 470.061 224.326L471.502 205.343C471.761 202.109 472.821 192.455 470.671 190.104C469.484 188.806 468.197 187.969 466.482 187.582C461.784 186.522 456.41 186.767 451.619 186.733L425.812 186.773C421.505 186.74 417.49 185.868 413.25 185.53C411.987 185.429 410.738 185.683 409.471 185.593L408.856 185.544C409.431 185.161 410.265 185.28 410.95 185.247C414.405 185.08 415.947 185.32 418.446 182.675C419.611 182.643 420.386 182.547 421.454 182.067Z"/>
	<defs>
		<linearGradient id="gradient_4" gradientUnits="userSpaceOnUse" x1="658.33569" y1="466.36908" x2="612.83405" y2="469.73596">
			<stop offset="0" stop-color="#AFA3A4"/>
			<stop offset="1" stop-color="#D2D2D3"/>
		</linearGradient>
	</defs>
	<path fill="url(#gradient_4)" transform="scale(0.666667 0.666667)" d="M609.163 429.932C615.886 432.523 622.993 433.712 629.977 435.394L657.689 442.381C657.385 443.742 656.05 449.231 656.404 450.287C652.957 465.36 648.461 479.824 643.083 494.309C641.833 497.674 640.557 500.903 638.98 504.135C638.335 505.457 637.816 506.787 636.79 507.866C632.819 505.264 628.426 503.765 623.816 502.75C623.014 500.761 622.719 498.168 622.279 496.04L619.372 481.435C615.811 464.243 611.686 447.339 609.163 429.932Z"/>
	<defs>
		<linearGradient id="gradient_5" gradientUnits="userSpaceOnUse" x1="180.30548" y1="293.80844" x2="446.44955" y2="448.25308">
			<stop offset="0" stop-color="#CBCACB"/>
			<stop offset="1" stop-color="white"/>
		</linearGradient>
	</defs>
	<path fill="url(#gradient_5)" transform="scale(0.666667 0.666667)" d="M293.67 230.622L294.401 231.004C296.175 231.064 297.301 230.774 298.92 230.06L298.838 230.69C301.124 237.854 301.964 244.764 303.034 252.167C305.928 272.183 308.063 293.208 322.324 308.801L321.51 332.407L320.972 347.212C320.961 349.065 320.74 351.564 321.388 353.294C322.554 356.402 324.818 359.364 326.744 362.031C330.644 367.432 334.838 372.628 339.419 377.467L382.615 415.6C385.267 414.393 387.712 412.884 390.13 411.264C392.453 409.709 401.693 402.367 403.646 402.266L403.735 402.595C404.401 404.862 405.906 406.757 407.26 408.657L413.199 417.078L430.861 444.375L436.483 453.355C437.871 455.653 439.583 458.108 439.564 460.875L439.219 461.062C434.368 455.71 430.767 449.109 426.701 443.158L411.747 422.16C408.119 417.293 404.508 412.281 400.327 407.871C395.736 411.25 390.959 415.552 385.533 417.429C384.376 417.829 381.699 418.825 380.552 418.731C378.812 418.588 374.726 414.129 373.101 413.023C370.068 410.957 366.747 409.224 363.455 407.614C359.65 411.54 356.651 416.917 353.595 421.476C349.539 427.444 344.94 433.485 342.347 440.264C338.768 448.068 336.018 456.836 331.279 464.002L315.271 417.905C314.198 413.93 312.579 410.153 311.648 406.125C309.138 395.264 308.832 385.137 310.118 374.12C310.771 368.524 311.459 363.753 313.255 358.394L292.279 378.432C289.125 381.241 285.951 384.259 282.422 386.583C277.493 389.829 271.269 391.437 265.72 393.365C242.62 401.391 218.827 408.117 194.99 413.541L179.062 417.021C175.686 417.71 172.115 418.131 168.842 419.192L168.759 418.895C167.86 415.991 167.226 412.894 166.859 409.875L167.566 409.192C166.951 409.125 166.217 409.228 165.764 408.751C163.647 406.521 163.81 399.91 163.944 396.938L165.018 396.392L173.632 395.459L173.192 380.523L166.204 380.678C165.131 380.62 163.987 380.855 163.229 380.062C163.188 376.142 162.732 371.511 163.802 367.733L164.812 351.326L165.673 350.689L164.812 350.086C164.906 347.67 164.837 340.914 166.394 339.225L170.337 321.346C170.358 319.525 171.223 317.513 171.738 315.75C172.484 313.197 172.967 309.414 174.845 307.483C175.236 305.761 176.214 303.955 176.912 302.318C178.464 298.677 180.047 295.082 181.906 291.584C183.931 288.9 183.354 283.972 185.66 281.554L185.539 281.05C186.943 277.603 189.253 272.613 192.136 270.206C192.371 268.484 194.509 265.987 195.512 264.455C196.223 262.647 197.617 260.968 198.745 259.383C201.168 255.979 203.629 252.601 206.533 249.586C207.215 249.911 206.997 249.763 207.534 250.166L211.767 253.055L223.577 261.103C224.135 260.781 224.574 260.518 225.222 260.429C228.963 259.916 231.524 257.818 234.574 255.779C241.261 258.875 247.289 263.563 253.359 267.731C261.524 256.638 272.046 247.148 282.773 238.594C284.682 237.071 286.62 235.536 288.657 234.188C290.301 233.098 292.44 232.18 293.67 230.622Z"/>
	<path fill="#E5383B" transform="scale(0.666667 0.666667)" d="M293.67 230.622L294.401 231.004C296.175 231.064 297.301 230.774 298.92 230.06L298.838 230.69C298.418 232.526 298.17 235.08 296.457 236.176C293.508 238.063 290.318 239.479 287.369 241.497C275.489 249.623 264.568 260.206 255.155 271.095C254.67 269.909 254.005 268.833 253.359 267.731C261.524 256.638 272.046 247.148 282.773 238.594C284.682 237.071 286.62 235.536 288.657 234.188C290.301 233.098 292.44 232.18 293.67 230.622Z"/>
	<path fill="#A4161A" transform="scale(0.666667 0.666667)" d="M219.21 279.75L231.687 287.365C232.549 287.864 234.358 289.178 235.282 289.321L239.611 292.27C237.592 295.576 235.573 298.916 233.913 302.42C232.809 304.75 232.024 308.227 230.567 310.217C228.445 309.188 224.339 306.866 222.096 306.877C218.078 304.541 212.428 303.153 207.99 301.715L209.182 301.068C211.651 299.434 218.662 282.893 219.21 279.75Z"/>
	<path fill="#BA181B" transform="scale(0.666667 0.666667)" d="M166.394 339.225L219.471 347.322C219.114 349.628 218.953 354.682 217.886 356.599C211.55 355.225 205.208 354.85 198.773 354.222L165.673 350.689L164.812 350.086C164.906 347.67 164.837 340.914 166.394 339.225Z"/>
	<path fill="#A4161A" transform="scale(0.666667 0.666667)" d="M163.802 367.733L216.417 371.15L216.399 380.259L173.192 380.523L166.204 380.678C165.131 380.62 163.987 380.855 163.229 380.062C163.188 376.142 162.732 371.511 163.802 367.733Z"/>
	<path fill="#B1A7A6" transform="scale(0.666667 0.666667)" d="M216.399 380.259C217.245 383.863 216.952 387.836 216.693 391.497L191.377 393.857L180.398 394.935C178.674 395.101 176.315 395.048 174.737 395.665L173.632 395.459L173.192 380.523L216.399 380.259Z"/>
	<path fill="#BA181B" transform="scale(0.666667 0.666667)" d="M174.845 307.483L196.125 315.024C199.814 316.251 203.61 317.809 207.412 318.607L207.737 318.746L224.756 324.213C225.034 326.748 223.316 330.984 222.469 333.494L221.972 333.265C218.926 331.885 215.559 331.378 212.314 330.63L188.231 325.693L170.337 321.346C170.358 319.525 171.223 317.513 171.738 315.75C172.484 313.197 172.967 309.414 174.845 307.483Z"/>
	<path fill="#A4161A" transform="scale(0.666667 0.666667)" d="M174.737 395.665C176.315 395.048 178.674 395.101 180.398 394.935L191.377 393.857L216.693 391.497L216.831 402.088L181.326 407.287L167.566 409.192C166.951 409.125 166.217 409.228 165.764 408.751C163.647 406.521 163.81 399.91 163.944 396.938L165.018 396.392L173.632 395.459L174.737 395.665Z"/>
	<path fill="#BA181B" transform="scale(0.666667 0.666667)" d="M173.632 395.459L174.737 395.665C173.941 397.698 173.952 398.792 174.526 400.875C174.785 401.812 174.869 402.655 174.907 403.622C174.961 405.005 175.55 405.92 176.25 407.066L181.326 407.287L167.566 409.192C166.951 409.125 166.217 409.228 165.764 408.751C163.647 406.521 163.81 399.91 163.944 396.938L165.018 396.392L173.632 395.459Z"/>
	<path fill="#660708" transform="scale(0.666667 0.666667)" d="M185.66 281.554L185.539 281.05C186.943 277.603 189.253 272.613 192.136 270.206L201.223 275.691C201.725 275.406 202.688 273.531 203.062 272.938C203.818 272.693 204.487 272.44 205.189 272.062L205.838 271.708L219.21 279.75C218.662 282.893 211.651 299.434 209.182 301.068L207.99 301.715C205.245 300.292 201.686 299.442 198.724 298.374L181.906 291.584C183.931 288.9 183.354 283.972 185.66 281.554Z"/>
	<path fill="#D3D3D3" transform="scale(0.666667 0.666667)" d="M185.66 281.554L185.539 281.05C186.943 277.603 189.253 272.613 192.136 270.206L201.223 275.691L194.78 286.716L194.297 286.329C191.659 284.23 188.746 282.863 185.66 281.554Z"/>
	<path fill="#D3D3D3" transform="scale(0.666667 0.666667)" d="M195.512 264.455C196.223 262.647 197.617 260.968 198.745 259.383C201.168 255.979 203.629 252.601 206.533 249.586C207.215 249.911 206.997 249.763 207.534 250.166L211.767 253.055L223.577 261.103C224.135 260.781 224.574 260.518 225.222 260.429C228.963 259.916 231.524 257.818 234.574 255.779C241.261 258.875 247.289 263.563 253.359 267.731C254.005 268.833 254.67 269.909 255.155 271.095L249.428 278.338L248.571 278.306L247.952 278.759L248.438 279.566L248.066 280.125L247.877 280.594L245.849 283.901C244.608 285.908 243.107 287.893 241.477 289.599C241.176 289.914 240.939 290.248 240.681 290.597C240.142 291.325 240.44 291.064 239.781 291.47C238.611 290.696 237.274 289.989 236.25 289.033C235.809 289.077 235.599 288.991 235.282 289.321C234.358 289.178 232.549 287.864 231.687 287.365L219.21 279.75L205.838 271.708L205.189 272.062C204.487 272.44 203.818 272.693 203.062 272.938C202.688 273.531 201.725 275.406 201.223 275.691L192.136 270.206C192.371 268.484 194.509 265.987 195.512 264.455Z"/>
	<path fill="#A4161A" transform="scale(0.666667 0.666667)" d="M195.512 264.455L205.838 271.708L205.189 272.062C204.487 272.44 203.818 272.693 203.062 272.938C202.688 273.531 201.725 275.406 201.223 275.691L192.136 270.206C192.371 268.484 194.509 265.987 195.512 264.455Z"/>
	<path fill="#A4161A" transform="scale(0.666667 0.666667)" d="M223.577 261.103C224.135 260.781 224.574 260.518 225.222 260.429C228.963 259.916 231.524 257.818 234.574 255.779C241.261 258.875 247.289 263.563 253.359 267.731C254.005 268.833 254.67 269.909 255.155 271.095L249.428 278.338L248.571 278.306C246.101 275.664 242.105 273.611 239.056 271.585L223.577 261.103Z"/>
	<path fill="#BA181B" transform="scale(0.666667 0.666667)" d="M482.053 117.984L507.096 128.716C514.095 132.344 521.226 136.122 527.901 140.322C544.103 150.516 558.924 162.483 572.933 175.484C580.946 182.921 588.9 190.576 596.098 198.818C618.921 224.949 636.608 255.87 647.25 288.938C654.722 312.155 658.673 335.507 660.677 359.768C661.474 369.409 662.21 379.296 661.941 388.971L657.689 442.381L629.977 435.394C622.993 433.712 615.886 432.523 609.163 429.932L608.513 427.875C607.176 423.518 604.418 423.152 600.547 421.711C599.33 421.257 598.105 420.935 597.308 419.841C592.708 418.096 587.531 417.031 582.77 415.684L531.402 401.432C518.514 397.825 505.45 394.27 492.947 389.473C487.396 387.342 481.543 385.048 476.481 381.914C474.441 380.652 472.859 378.968 471.306 377.168L449.111 348.767C448.203 347.482 446.107 345.118 445.738 343.679C445.334 342.102 445.725 339.366 445.75 337.681L445.84 323.449L445.888 313.52C445.891 312.956 445.698 311.136 445.902 310.674C446.472 309.384 448.225 307.638 449.131 306.525C451.179 304.008 453.063 301.537 454.686 298.723C460.345 288.914 461.365 279.808 462.386 268.762L463.63 256.23L464.43 249.451L465.84 238.927C467.466 238.851 468.799 239.603 470.438 239.527C471.623 238.714 472.003 237.902 472.61 236.621L473.466 231.698L473.694 231.521C476.292 227.459 477.196 224.922 477.561 220.148C477.638 219.153 477.576 217.81 477.948 216.882C478.349 215.883 479.422 215.854 480.363 215.558C480.679 215.304 481.211 214.832 481.355 214.437C481.64 213.656 481.496 211.875 481.58 210.94L482.669 202.179L484.136 197.385C485.102 193.891 484.784 189.65 482.851 186.512C481.274 183.953 479.484 183.207 476.672 182.622C475.919 182.046 476.065 181.97 475.858 181.094C475.671 180.653 475.575 180.298 475.61 179.814L477.559 158.744L478.574 140.243C478.723 137.519 478.509 133.727 479.438 131.195C480.151 130.915 481.121 130.596 481.626 129.995C483.595 127.656 482.468 120.802 482.053 117.984Z"/>
	<path fill="#660708" transform="scale(0.666667 0.666667)" d="M513.811 209.736L517.097 205.608C519.73 207.517 522.243 209.618 524.697 211.751C525.961 212.848 527.281 213.8 527.99 215.355L526.643 216.377L518.152 213.02C517.323 212.696 515.587 212.238 514.946 211.688C514.565 211.361 514.089 210.214 513.811 209.736Z"/>
	<path fill="#F5F3F4" transform="scale(0.666667 0.666667)" d="M545.367 231.634C548.242 234.476 550.653 237.954 553.214 241.085L544.54 247.768L536.464 238.478L545.367 231.634Z"/>
	<path fill="#F5F3F4" transform="scale(0.666667 0.666667)" d="M527.99 215.355L537.705 223.675C534.861 227.093 531.379 229.992 528.89 233.682L518.503 224.751C520.948 221.585 523.985 219.284 526.643 216.377L527.99 215.355Z"/>
	<path fill="#F5F3F4" transform="scale(0.666667 0.666667)" d="M475.858 181.094C476.184 181.011 477.091 180.663 477.375 180.707C478.47 180.877 480.21 182.023 481.221 182.532L493.036 188.918L510.851 200.668C512.698 201.98 515.768 203.786 517.097 205.608L513.811 209.736C513.42 209.95 512.756 210.99 512.455 211.356L507.938 216.775C504.223 215.193 500.862 212.65 497.41 210.562L482.669 202.179L484.136 197.385C485.102 193.891 484.784 189.65 482.851 186.512C481.274 183.953 479.484 183.207 476.672 182.622C475.919 182.046 476.065 181.97 475.858 181.094Z"/>
	<path fill="#F5F3F4" transform="scale(0.666667 0.666667)" d="M480.363 215.558C483.298 215.477 487.955 219.077 490.441 220.689C504.06 229.526 517.38 239.633 529.121 250.86L534.09 256.369L515.981 268.479L512.742 264.868C504.375 255.807 495.225 247.829 485.513 240.244C481.723 237.285 477.151 234.813 473.694 231.521C476.292 227.459 477.196 224.922 477.561 220.148C477.638 219.153 477.576 217.81 477.948 216.882C478.349 215.883 479.422 215.854 480.363 215.558Z"/>
	<path fill="#F5F3F4" transform="scale(0.666667 0.666667)" d="M473.466 231.698L473.694 231.521C477.151 234.813 481.723 237.285 485.513 240.244C495.225 247.829 504.375 255.807 512.742 264.868C511.375 266.442 511.981 269.697 511.838 271.725C513.438 273.773 516.944 277.262 517.537 279.743C519.069 277.881 520.762 276.896 522.883 275.787L561.718 251.715L568.125 261.031C569.598 263.066 572.049 265.744 572.789 268.095L542.177 285.302C537.366 287.862 532.515 290.783 527.4 292.656C526.708 292.909 526.993 292.764 526.402 293.192L532.328 304.376C537.292 301.642 542.73 299.641 547.932 297.386L573.9 285.994C576.319 284.928 579.398 282.706 581.828 282.115L590.646 300.103L538.389 318.825C540.174 322.447 541.264 325.978 542.288 329.878L552.01 327.795L577.959 321.192C579.806 320.739 583.943 319.154 585.562 319.691L586.312 321.368L586.726 321.375L586.883 319.125C589.412 317.446 593.46 316.687 596.369 315.576L602.426 335.463L565.327 342.876L552.942 344.923C551.16 345.206 548.865 345.292 547.224 346.032L549.35 356.581L602.141 350.606L603.797 369.602L575.595 370.426L575.745 370.764C576.768 373.293 576.494 376.62 576.542 379.338L587.315 379.115L596.976 379.273C598.49 379.354 600.84 379.833 602.228 379.466C603.127 379.532 603.894 379.649 604.776 379.855L608.625 380.655C613.03 381.654 618.697 381.887 622.722 383.855C623.361 384.167 623.739 384.162 624.426 384.299C625.202 384.454 626.433 385.088 627.138 384.78C630.007 383.527 641.329 386.478 645 387.033C650.536 387.869 656.346 388.884 661.941 388.971L657.689 442.381L629.977 435.394C622.993 433.712 615.886 432.523 609.163 429.932L608.513 427.875C607.176 423.518 604.418 423.152 600.547 421.711C599.33 421.257 598.105 420.935 597.308 419.841C592.708 418.096 587.531 417.031 582.77 415.684L531.402 401.432C518.514 397.825 505.45 394.27 492.947 389.473C487.396 387.342 481.543 385.048 476.481 381.914C474.441 380.652 472.859 378.968 471.306 377.168L449.111 348.767C448.203 347.482 446.107 345.118 445.738 343.679C445.334 342.102 445.725 339.366 445.75 337.681L445.84 323.449L445.888 313.52C445.891 312.956 445.698 311.136 445.902 310.674C446.472 309.384 448.225 307.638 449.131 306.525C451.179 304.008 453.063 301.537 454.686 298.723C460.345 288.914 461.365 279.808 462.386 268.762L463.63 256.23L464.43 249.451L465.84 238.927C467.466 238.851 468.799 239.603 470.438 239.527C471.623 238.714 472.003 237.902 472.61 236.621L473.466 231.698Z"/>
	<path fill="#E5383B" transform="scale(0.666667 0.666667)" d="M473.466 231.698L473.694 231.521C477.151 234.813 481.723 237.285 485.513 240.244C495.225 247.829 504.375 255.807 512.742 264.868C511.375 266.442 511.981 269.697 511.838 271.725C505.608 263.999 498.103 256.257 490.475 249.888C484.842 245.185 478.578 240.895 472.61 236.621L473.466 231.698Z"/>
	<defs>
		<linearGradient id="gradient_6" gradientUnits="userSpaceOnUse" x1="550.41235" y1="394.34253" x2="601.69617" y2="393.56512">
			<stop offset="0" stop-color="#740711"/>
			<stop offset="1" stop-color="#A00714"/>
		</linearGradient>
	</defs>
	<path fill="url(#gradient_6)" transform="scale(0.666667 0.666667)" d="M550.581 375.917L550.511 371.004C553.539 371.267 556.713 371.01 559.753 370.919L575.595 370.426L575.745 370.764C576.768 373.293 576.494 376.62 576.542 379.338L587.315 379.115L596.976 379.273C598.49 379.354 600.84 379.833 602.228 379.466L602.26 388.966C602.193 391.316 601.208 401.479 602.064 402.795C601.839 404.15 601.887 406.592 600.68 407.345C598.705 408.578 594.697 409.136 592.399 408.903C589.926 408.653 586.985 408.541 584.505 408.707C581.832 408.77 578.323 407.505 575.54 407.118L575.502 407.047C567.046 405.137 558.331 402.474 549.745 401.474L550.133 393.322L550.581 375.917Z"/>
	<path fill="#BA181B" transform="scale(0.666667 0.666667)" d="M550.581 375.917L550.646 376.229C551.016 378.15 550.989 380.122 551.028 382.072C553.02 381.795 557.6 380.474 559.268 381.055L559.556 381.808C559.472 385.38 559.909 391.222 557.596 394.036C555.776 394.279 554.327 393.593 552.562 393.392C551.743 393.298 550.948 393.416 550.133 393.322L550.581 375.917Z"/>
	<path fill="#A4161A" transform="scale(0.666667 0.666667)" d="M550.581 375.917L550.511 371.004C553.539 371.267 556.713 371.01 559.753 370.919L575.595 370.426L575.745 370.764C576.768 373.293 576.494 376.62 576.542 379.338L587.315 379.115C583.591 380.217 580.245 380.067 576.411 380.063L576.289 384.437L575.921 384.188L576.082 379.447C570.926 379.525 565.228 379.797 560.174 380.892L559.556 381.808L559.268 381.055C557.6 380.474 553.02 381.795 551.028 382.072C550.989 380.122 551.016 378.15 550.646 376.229L550.581 375.917Z"/>
	<path fill="#E5383B" transform="scale(0.666667 0.666667)" d="M602.228 379.466C603.127 379.532 603.894 379.649 604.776 379.855L608.625 380.655C613.03 381.654 618.697 381.887 622.722 383.855C623.361 384.167 623.739 384.162 624.426 384.299C625.202 384.454 626.433 385.088 627.138 384.78C630.007 383.527 641.329 386.478 645 387.033C650.536 387.869 656.346 388.884 661.941 388.971L657.689 442.381L629.977 435.394C622.993 433.712 615.886 432.523 609.163 429.932L608.513 427.875C607.176 423.518 604.418 423.152 600.547 421.711C599.33 421.257 598.105 420.935 597.308 419.841L597.621 419.52C598.297 418.657 598.616 417.622 599.004 416.609L600.297 411.933L584.983 408.841L584.505 408.707C586.985 408.541 589.926 408.653 592.399 408.903C594.697 409.136 598.705 408.578 600.68 407.345C601.887 406.592 601.839 404.15 602.064 402.795C601.208 401.479 602.193 391.316 602.26 388.966L602.228 379.466Z"/>
	<path fill="#BA181B" transform="scale(0.666667 0.666667)" d="M602.064 402.795C604.098 403.54 605.775 404.043 606.745 406.125C608.476 409.839 608.582 414.559 608.637 418.581C606.178 418.29 602.873 418.379 600.562 417.717C600.159 417.602 599.383 416.878 599.004 416.609L600.297 411.933L584.983 408.841L584.505 408.707C586.985 408.541 589.926 408.653 592.399 408.903C594.697 409.136 598.705 408.578 600.68 407.345C601.887 406.592 601.839 404.15 602.064 402.795Z"/>
</svg>
