<?xml version="1.0" encoding="utf-8" ?>
<svg xmlns="http://www.w3.org/2000/svg" xmlns:xlink="http://www.w3.org/1999/xlink" width="800" height="800">
	<path fill="#D9AE94" transform="scale(1.5625 1.5625)" d="M128.602 504.664C122.676 503.853 116.945 501.474 111.304 499.53L40.5 475.281C32.7445 472.575 13.2049 467.212 7.875 460.982C6.65918 459.561 6.60239 458.044 6.55803 456.25L6.42501 277.154C6.40351 269.09 6.01167 268.861 14.5053 265.906L121.916 233.545C124.518 232.883 127.106 232.536 129.777 232.304C134.276 233.376 138.54 235.268 142.843 236.93L160.936 243.791L244.015 271.018C246.307 271.823 249.396 272.864 251.29 274.432L254.518 275.549C255.429 276.647 255.267 278.388 255.296 279.653L255.404 461.97C248.557 468.786 237.513 470.882 228.572 473.787L142.649 501.447C140.172 502.218 131.071 505.325 128.602 504.664Z"/>
	<path fill="#997B66" transform="scale(1.5625 1.5625)" d="M251.29 274.432L254.518 275.549C255.429 276.647 255.267 278.388 255.296 279.653L255.404 461.97C248.557 468.786 237.513 470.882 228.572 473.787L142.649 501.447C140.172 502.218 131.071 505.325 128.602 504.664L128.531 310.545C130.045 309.59 132.829 309.099 134.605 308.516L237.257 278.887L251.29 274.432Z"/>
	<path fill="#9B9B7A" transform="scale(1.5625 1.5625)" d="M383.386 231.756C386.573 231.804 390.332 233.324 393.4 234.247L465.636 256.447C473.564 258.84 500.005 263.613 504.458 270.562C506.516 273.317 505.359 282.345 505.362 285.834L505.41 451.132C505.463 461.592 505.484 462.502 494.798 466.811L397.25 499.983C392.45 501.604 387.461 503.842 382.442 504.629C381.369 504.432 380.23 504.42 379.179 504.144L278.58 471.892C271.964 469.649 264.582 467.672 258.556 464.017C257.613 463.444 256.786 462.614 255.805 462.125L255.48 461.97L255.296 279.653C255.267 278.388 255.429 276.647 254.787 275.549L255.028 275.315C257.435 274.163 263.82 272.604 267.143 271.29L282.411 265.27L377.972 233.667C379.712 233.007 381.821 232.699 383.386 231.756Z"/>
	<path fill="#797D62" transform="scale(1.5625 1.5625)" d="M504.458 270.562C506.516 273.317 505.359 282.345 505.362 285.834L505.41 451.132C505.463 461.592 505.484 462.502 494.798 466.811L397.25 499.983C392.45 501.604 387.461 503.842 382.442 504.629C382.031 504.267 382.045 504.397 382.033 504.03L381.998 455.964C381.996 440.938 381.521 311.932 382.221 310.627C382.439 310.22 386.108 309.166 386.736 308.943L468.535 282.961L491.058 276.613C496.227 275.12 500.705 274.654 504.458 270.562Z"/>
	<path fill="#FFCB69" transform="scale(1.5625 1.5625)" d="M129.777 232.304C129.606 230.885 129.435 229.227 129.427 227.783L129.41 46.4924C129.449 44.0707 128.956 42.194 131.192 40.7688C134.38 38.7373 138.554 37.5615 142.148 36.4336L246.914 5.08785C250.858 4.02787 255.249 1.94002 259.408 2.88722L372.447 36.7934C376.166 38.0452 380.517 39.3803 382.362 43.0988C383.33 45.0973 383.172 47.9972 383.206 50.1884L383.3 229.346C383.303 229.998 383.466 231.149 383.276 231.756C381.821 232.699 379.712 233.007 377.972 233.667L282.411 265.27L267.143 271.29C263.82 272.604 257.435 274.163 255.028 275.315L254.518 275.549L251.29 274.432C249.396 272.864 246.307 271.823 244.015 271.018L160.936 243.791L142.843 236.93C138.54 235.268 134.276 233.376 129.777 232.304Z"/>
	<path fill="#D08C60" transform="scale(1.5625 1.5625)" d="M382.362 43.0988C383.33 45.0973 383.172 47.9972 383.206 50.1884L383.3 229.346C383.303 229.998 383.466 231.149 383.276 231.756C381.821 232.699 379.712 233.007 377.972 233.667L282.411 265.27L267.143 271.29C263.82 272.604 257.435 274.163 255.028 275.315C255.473 272.674 255.372 269.927 255.383 267.269L255.359 86.5224L356.643 53.4909C365.039 50.7044 375.4 48.8958 382.362 43.0988Z"/>
</svg>
