<?xml version="1.0" encoding="utf-8" ?>
<svg xmlns="http://www.w3.org/2000/svg" xmlns:xlink="http://www.w3.org/1999/xlink" width="512" height="512">
	<defs>
		<linearGradient id="gradient_0" gradientUnits="userSpaceOnUse" x1="39.491837" y1="174.39661" x2="45.422249" y2="159.56854">
			<stop offset="0" stop-color="#FFA198"/>
			<stop offset="1" stop-color="#FED5CB"/>
		</linearGradient>
	</defs>
	<path fill="url(#gradient_0)" d="M35.8097 155.481C36.7772 155.508 37.5241 155.444 38.3053 155.938L38.6463 156.139C41.5774 157.923 48.2582 162.108 49.1576 165.75L49.3315 166.566C49.8555 169.103 49.4563 172.45 48.7464 174.929C46.918 172.661 39.1629 174.124 36.5107 174.003L35.8097 155.481Z"/>
	<path fill="#3C4657" d="M34.9071 79.7707L68.9926 79.7621C73.2187 79.7711 76.5264 80.033 78.9358 84.2047L79.5792 85.4722C80.9097 89.0177 78.9426 93.8659 75.3159 95.1795L73.0402 95.7409L46.7336 95.8512C42.9256 95.8561 38.5753 96.2612 34.8116 95.7136L33.375 95.4934C25.9424 93.3857 26.0089 83.4281 32.6347 80.4102L34.9071 79.7707Z"/>
	<path fill="#FF3C38" d="M36.5058 174.003C39.1629 174.124 46.918 172.661 48.7464 174.614L48.6311 175.254C48.3565 177.96 48.4795 180.744 48.4748 183.466L48.4185 222.125C48.4969 225.749 48.3404 229.463 48.6205 233.072L50.1569 248.085C50.3861 250.684 37.5572 249.691 35.784 248.918L35.3492 248.72C35.9647 246.474 35.6866 243.544 35.6967 241.271L35.7739 225.886C35.8112 222.238 36.3759 218.698 36.4424 215.083L36.5058 174.003Z"/>
	<path fill="#3C4657" d="M58.1573 13.3483C65.8736 12.8132 111.81 12.9311 113.122 13.7127C121.007 18.4094 119.968 28.5559 110.562 28.7464L70.8492 28.963C66.288 28.9721 61.4017 29.4178 56.8824 29.061C51.5306 28.6384 47.4487 22.6183 50.5255 17.8149L50.7332 17.5C52.5117 14.7644 55.0119 13.6657 58.1573 13.3483Z"/>
	<path fill="#3C4E57" d="M94.4161 143.754C101.69 143.385 103.53 147.722 103.434 153.627L103.316 246.122C103.171 249.906 100.299 252.29 96.8853 253.346C91.2298 253.71 88.2308 250.021 88.064 244.843L88.0005 161.722C87.9934 154.147 85.775 147.405 94.4161 143.754Z"/>
	<path fill="#3C4657" d="M9.88349 46.3489L101.495 46.7586C105.058 46.7616 112.3 45.6561 115.276 48.0751L116.663 49.3367C121.439 54.754 119.291 62.3554 111.958 62.7681L12.062 62.46C10.865 62.4591 9.30954 62.5372 8.17017 62.1425L7.875 62.0326C-1.73069 58.558 0.638392 47.2765 9.88349 46.3489Z"/>
	<path fill="#3C4E57" d="M35.4676 248.669C34.6965 249.999 33.679 251.281 32.3289 251.964L32.0809 252.083C29.0163 253.582 23.9739 254.593 21.0621 252.477C15.3675 248.339 17.2026 241.085 17.1965 234.885L17.1365 179.813C17.0964 176.453 15.6873 163.986 17.5183 161.713L17.6964 161.5C18.0654 161.053 18.3795 160.629 18.8823 160.322C21.0625 158.993 21.375 154.65 23.3058 152.621C26.6823 149.073 35.0334 149.372 35.8783 155.481L36.5056 174.003L36.4424 215.083C36.3759 218.698 35.8112 222.238 35.7739 225.886L35.6967 241.271C35.6866 243.544 35.9647 246.474 35.4676 248.669Z"/>
	<path fill="#3C4E57" d="M59.8262 113.79C61.6508 113.838 63.4358 114.236 64.9256 115.328L65.2311 115.557C66.5055 116.49 68.0382 118.314 68.2908 119.928L68.3312 120.25C68.611 122.171 68.4958 124.153 68.4969 126.094L68.4912 236.918C68.4784 244.24 69.7131 253.128 59.9131 254.561L59.7146 254.543C54.4354 253.984 50.8373 251.727 50.8328 246.344L50.9561 222.957C51.0489 214.93 51.5524 207.397 51.5529 199.263L51.5532 173.75C51.5731 166.903 52.5441 160.133 52.6729 153.316L52.8971 128C52.9017 121.427 51.3896 115.668 59.8262 113.79Z"/>
	<path fill="#3C4657" d="M233.356 2.08129L245.8 2.05878C267.484 2.06675 285.451 7.02965 304.782 17.3249L310.166 20.3399C311.746 21.2023 314.163 17.4042 315.264 16.3076C328.695 2.93305 346.305 0.502195 364.227 3.20555C386.755 6.60378 407.091 27.9861 409.601 50.6712C412.769 79.3015 398.038 102.07 370.243 111.049C368.699 111.548 367.054 111.787 365.576 112.435L366.826 173.923C375.137 179.999 379.27 186.836 382.477 196.181C381.985 186.715 378.561 165.48 387.75 159.035L388.679 158.403C393.331 155.487 408.357 157.013 414.201 157.013L488.825 157.008C494.67 156.956 503.507 159.728 503.721 166.47L503.641 283.396C503.652 285.892 504.314 289.481 503.556 291.804C502.579 294.796 497.803 298.744 494.415 297.499L494.095 297.375C490.766 296.118 487.514 293.406 484.555 291.421L464.772 277.87C459.627 274.265 458.497 272.378 452.155 272.373L395.718 272.356C394.173 272.348 392.262 272.524 390.765 272.157L390.5 272.089C389.473 271.862 388.871 271.704 388.039 271.024L387.255 270.393C383.067 266.89 382.56 264.453 382.553 259.383L382.063 206.012C379.132 215.775 370.788 225.135 362.517 230.594L362.687 232.62C363.538 239.628 365.077 246.642 366.74 253.5C371.567 273.405 376.497 282.809 394.149 294.285C408.301 303.485 405.717 307.066 396.57 317.847L385.875 330.36C382.624 333.926 379.111 337.277 376.024 340.986C379.988 341.781 384.133 343.892 387.923 345.363C404.074 351.631 420.053 357.487 432.477 370.075C443.313 381.053 450.864 395.701 454.183 410.683C456.406 422.518 456.136 432.478 456.136 444.5L456.185 492.869C456.187 495.464 456.427 498.352 456.134 500.912C455.345 507.804 449.226 509.959 443.347 509.96L47.7516 509.961C45.4323 509.961 42.3779 510.31 40.1376 509.762C36.9441 508.98 33.8205 503.427 33.6602 500.261L33.5936 435.136C33.5968 430.542 33.4278 425.818 33.8956 421.246C36.6076 394.742 52.2967 368.781 76.5202 356.782C81.2481 354.44 86.3235 352.868 91.25 351.007L120.444 340.034C116.141 334.824 112.212 329.167 108.375 323.608L101.875 313.545C99.6937 309.791 97.1174 305.401 99.5547 301.126C103.078 294.945 109.464 296.496 115.202 294.871C139.853 287.89 149.513 258.944 155.716 236.843C148.374 235.54 141.651 234.855 135.051 231.004C126.818 226.2 119.709 219.131 117.261 209.691C114.126 197.595 119.176 184.415 128.434 176.426C129.966 175.104 129.341 173.976 129.343 172.034L129.373 127.461C129.378 119.946 128.97 112.127 129.56 104.646C132.966 61.4594 163.834 22.3399 204.5 7.99703C213.595 4.78954 223.67 2.38394 233.356 2.08129ZM225.22 411.529C227.169 419.466 228.351 427.546 229.685 435.601L238.607 489.551C238.988 491.643 239.105 494.006 239.791 496.009L259.259 495.998C259.836 494.457 259.887 492.8 260.193 491.192L262.003 482.196L274.516 414.97C257.889 418.135 241.122 417.2 225.22 411.529Z"/>
	<path fill="#FF3C38" d="M345.817 182.875L347.375 182.687C355.451 182.242 366.136 191.66 366.238 199.862C366.3 204.848 362.673 210.123 359.278 213.444C355.086 217.233 350.072 218.763 344.555 219.259C344.108 217.267 344.466 214.373 344.469 212.289L344.374 187.547C344.324 185.54 343.706 183.767 345.817 182.875Z"/>
	<path fill="#FF3C38" d="M153.122 183.125C153.704 183.929 153.443 186.04 153.442 186.973L153.803 220.494C147.674 220.042 142.922 218.296 138.158 214.399C121.706 199.994 134.802 185.01 153.122 183.125Z"/>
	<path fill="#3C4E57" d="M348.772 17.3668C398.037 16.3838 413.623 81.9304 365.811 96.3759L361.135 97.6462C359.818 92.0672 358.564 86.6131 356.562 81.2227C349.481 62.1594 336.448 43.67 320.845 30.5078C329.367 23.6627 337.656 18.1015 348.772 17.3668Z"/>
	<path fill="#3C4E57" d="M164.862 255.686L168.161 261.154C173.613 269.364 179.802 277.53 186.614 284.668L195.447 293.262C199.746 297.253 199.38 295.753 199.391 301.563L199.45 317.944C198.172 318.55 196.283 318.679 194.87 319.049L144.956 336.182L138.017 339.099C136.033 335.433 133.353 332.912 130.439 330.001L123.758 322.868C119.79 318.316 116.279 313.323 112.54 308.578C132.811 308.221 151.156 286.982 159.317 270.111C161.567 265.458 162.945 260.47 164.862 255.686Z"/>
	<path fill="#3C4E57" d="M344.3 233.125L344.544 233.188C348.743 236.817 348.973 246.074 349.889 251.114L351.831 259.998C356.285 277.748 369.314 298.018 385.466 307.687L364.55 330.668C362.504 333.005 360.685 336.698 358.317 338.541C355.207 336.714 351.618 335.887 348.19 334.838L307.032 320.36C305.661 319.921 304.223 319.821 302.937 319.153L303.179 304.108C303.271 301.453 303.121 298.109 304.052 295.597L304.207 295.25C305.126 293.131 307.325 291.989 309.096 290.625C323.693 279.379 334.85 262.577 339.63 244.82C340.698 240.852 341.27 236.142 344.3 233.125Z"/>
	<path fill="#F4EDEA" d="M212.99 306.94L229.547 315.792C243.409 321.677 258.001 322.189 272.175 317.14C276.656 315.544 282.064 313.328 286.172 310.843C286.264 312.182 285.992 313.646 285.91 315L285.563 334.708C284.439 351.479 281.608 368.154 279.425 384.809L277.621 396.704C276.788 397.069 275.648 397.242 274.754 397.479L268.681 398.998C252.023 402.612 238.772 399.976 222.817 394.598L212.921 324.375L214.062 323.25C213.413 319.913 213.013 321.04 212.996 316.291L212.99 306.94Z"/>
	<path fill="#CED7DD" d="M398.672 173.625L486.442 173.794C486.912 175.925 486.528 179.06 486.527 181.295L486.091 273.295L477.368 266.9C468.337 259.87 464.85 254.768 453.165 255.053L401.664 255.182C400.689 255.184 399.173 255.397 398.272 255.051L398.672 173.625Z"/>
	<path fill="#3C4657" d="M447.361 183.949L459.651 183.897C465.944 183.879 471.223 183.813 471.881 191.845C472.374 197.857 471.95 204.29 471.946 210.347L471.92 227.844C471.915 231.571 472.412 236.204 471.361 239.756L471.247 240.125C469.744 245.082 465.548 245.76 461.147 245.783L430.54 245.797L419.477 245.835C412.68 245.848 406.607 245.864 406.261 237.125L406.221 200.809C406.274 182.906 413.314 183.983 427.715 183.962L447.361 183.949Z"/>
	<path fill="#EBC425" d="M450.664 200.223L456.112 200.029L455.927 229.306L427.039 229.344C425.731 229.63 423.827 229.409 422.452 229.428L422.554 200.216L450.664 200.223Z"/>
	<path fill="#CED7DD" d="M302.727 336.686C315.43 340.296 320.702 340.202 328.515 351.233C339.33 366.502 342.383 386.202 343.256 404.525L313.125 404.456C296.31 404.368 301.407 420.102 310.106 420.496C311.979 420.581 313.92 420.395 315.799 420.373L326.961 420.33C334.575 420.32 342.374 420.665 349.967 420.234C362.173 419.541 359.969 406.424 358.941 398.513C356.776 381.849 353.404 366.25 346.856 350.756C353.128 352.729 356.352 358.737 359.953 363.781L370.083 378.011C376.053 386.447 382.655 394.425 387.839 403.394C390.042 407.938 390.381 412.264 390.431 417.25L390.438 482.159C390.433 486.502 390.675 491.05 390.246 495.367C384.105 495.835 377.687 495.495 371.513 495.495L325.393 495.426C315.943 495.366 309.634 500.171 299.138 498.33C296.596 497.884 294.109 496.588 291.582 496.281C286.559 495.672 281.2 496.011 276.137 496.013C276.962 494.527 277.001 491.398 277.332 489.659L290.592 418.503L302.727 336.686Z"/>
	<path fill="#CED7DD" d="M132.729 369.908L132.713 369.457C132.604 365.954 134.747 363.96 136.826 361.324C142.103 354.638 146.458 349.774 155.278 347.893L155.468 347.902C151.678 363.534 150.508 379.657 147.649 395.448C146.912 399.52 144.12 406.595 143.99 409.306C143.8 413.278 148.44 419.229 152.148 420.123C154.801 420.762 157.855 420.377 160.578 420.339L181.038 420.328C183.219 420.361 185.425 420.564 187.593 420.267C195.697 419.159 202.151 406.062 190.545 404.544C187.511 404.148 184.064 404.454 180.994 404.466L162.178 404.325C162.906 402.313 163.006 399.55 163.345 397.403L172.573 342.32L197.447 333.259L222.727 495.748L97.9468 495.505L98.0015 422.577C97.9563 407.25 99.8203 407.336 110.028 395.79L129.623 374.053C130.848 372.823 131.784 371.354 132.729 369.908Z"/>
	<path fill="#3C4E57" d="M238.898 16.2741L241.756 16.2526C248.431 16.2264 254.921 16.2495 261.549 17.222C280.666 20.0269 301.202 29.9048 314.777 43.4051C337.558 66.0601 345.772 88.3265 349.782 119.001L352.22 145.25L352.528 167.844C337.693 162.175 337.479 164.02 338.995 146.524C337.423 143.611 334.764 141.937 332.188 139.998C315.095 127.129 316.51 117.686 316.514 97.9341C316.514 95.7224 316.817 93.0148 316.314 90.8802C314.947 85.0906 306.849 85.9207 303 88.4642C298.768 91.261 295.408 95.8044 291.935 99.4795L280.693 110.669L280.367 110.977C255.411 134.019 207.381 148.333 174.731 144.414C169.55 143.793 161.761 141.247 157.529 145.529C153.782 149.318 154.713 162.262 154.728 167.465L143.617 167.881C143.123 165.489 143.871 162.624 143.899 160.173L143.969 137.32C143.988 123.417 143.115 109 145.597 95.2679C149.767 72.1985 161.581 53.7578 179.154 38.8826C197.731 23.1584 215.361 18.4462 238.898 16.2741Z"/>
	<path fill="#F4EDEA" d="M300.865 112.875L301.303 113.125C300.63 127.527 310.447 140.014 320.509 149.137C323.182 151.561 326.344 153.273 328.256 155.082L328.291 212.603C328.297 219.645 328.218 226.226 326.652 233.14C320.374 260.847 286.167 300.799 256.61 304.628C239.866 306.797 226.042 297.339 213.42 287.551L197.632 273.24C180.472 255.286 168.641 234.026 168.666 208.942L168.812 159.29L178.375 159.92C212.277 161.045 249.956 152.361 278.061 132.611C286.241 126.863 293.573 119.693 300.865 112.875Z"/>
	<path fill="#3C4657" d="M284.147 174.074C294.776 173.303 294.018 183.07 293.981 190.349C293.948 196.82 295.501 206.124 287.451 208.487C275.514 209.703 277.502 194.634 277.514 187.251C277.517 184.914 277.119 181.701 277.894 179.512L277.994 179.25C279.04 176.45 281.204 174.707 284.147 174.074Z"/>
	<path fill="#3C4657" d="M213.297 173.778C225.032 172.594 224.275 183.107 224.252 191.119C224.242 194.616 224.696 199.504 223.345 202.719L223.223 203C222.198 205.442 220.668 206.772 218.269 207.799C213.208 208.811 208.013 205.787 207.564 200.299C207.324 197.371 207.1 180.168 207.853 178.375C208.779 176.168 211.186 174.654 213.297 173.778Z"/>
	<path fill="#3C4657" d="M279.754 247.299C285.21 246.691 290.752 249.801 289.834 255.885L289.772 256.25C287.892 267.935 265.498 278.178 255.025 279.44C241.339 281.09 229.221 276.704 218.491 268.313C212.253 263.295 205.182 254.569 215.836 249.945C220.212 248.045 222.113 249.386 225.398 252.329C238.832 264.362 256.332 269.097 270.921 255.022C273.567 252.47 275.975 248.879 279.42 247.435L279.754 247.299Z"/>
</svg>
