<?xml version="1.0" encoding="utf-8" ?>
<svg xmlns="http://www.w3.org/2000/svg" xmlns:xlink="http://www.w3.org/1999/xlink" width="512" height="512">
	<path fill="#3C4E57" transform="scale(0.666667 0.666667)" d="M-0 -0L768 0L768 768L-0 768L0 -0Z"/>
	<path fill="#F4EDEA" transform="scale(0.666667 0.666667)" d="M376.733 28.7058L377.542 28.6764C398.771 27.9671 420.025 30.2206 440.856 34.1987C450.97 36.1303 461.002 38.2261 470.923 41.0029C500.042 49.1536 527.656 61.2793 553.998 76.0398C576.462 88.6265 598.439 103.641 617.278 121.261C684.888 184.498 731.088 274.486 734.084 367.852C735.414 409.314 728.84 450.645 715.811 489.966C713.074 498.226 710.344 506.53 706.974 514.557C699.266 532.91 689.722 550.503 679.197 567.381C667.829 585.608 654.949 603.166 640.201 618.83C627.578 632.237 613.769 645.474 599.304 656.869C586.82 666.704 573.507 675.242 559.785 683.219C549.041 689.465 538.071 695.467 526.737 700.583C484.01 719.868 437.718 729.572 390.966 731.017L390.622 731.031C374.768 731.572 358.692 730.313 342.965 728.378C330.547 726.85 318.129 725.074 305.921 722.285C291.772 719.053 277.975 714.532 264.375 709.52C232.422 697.745 202.711 681.991 175.324 661.683C163.689 653.055 152.565 642.895 141.925 633.068C107.304 601.098 79.1648 560.46 61.1481 516.92L54.4253 498.208C50.3078 486.047 46.6406 473.877 43.6883 461.375C38.6717 440.133 35.3092 419.344 34.4745 397.515C33.9738 384.425 33.9001 371.275 34.8694 358.203C39.7532 292.34 64.0374 227.706 103.154 174.551L115.055 159.684C119.768 153.916 124.341 148.001 129.416 142.541C147.912 122.637 168.569 105.397 191.038 90.1793C235.567 60.0222 285.562 39.4216 338.912 31.6667C351.405 29.8507 364.129 29.1523 376.733 28.7058Z"/>
	<path fill="#3C4657" transform="scale(0.666667 0.666667)" d="M393.404 394.125L409.523 389.499L409.006 389.865C404.193 393.316 399.926 398.498 397.022 403.639C396.064 405.335 394.996 408.054 393.683 409.461C393.158 410.024 392.314 410.069 391.608 410.13L390.757 410.164C389.04 410.198 386.646 410.297 385.038 409.652C380.209 407.715 376.208 400.478 372.932 396.562C371.3 394.611 369.431 392.87 367.589 391.12C368.903 391.11 370.576 391.759 371.89 392.03L381.75 393.831C383.99 394.29 387.025 395.382 389.231 395.243C390.594 395.157 392.11 394.549 393.404 394.125Z"/>
	<path fill="#3C4657" transform="scale(0.666667 0.666667)" d="M393.377 431.492C396.809 430.897 400.869 429.612 404.318 429.707C406.389 429.764 408.485 430.601 410.437 431.232L422.336 435.183C426.144 436.292 430.124 436.914 434.018 437.66C425.437 439.007 416.509 438.53 408.01 440.285C405.944 440.712 403.782 441.214 401.8 441.941C399.277 442.865 395.324 445.413 392.806 445.128L392.232 445.081C388.235 443.349 383.999 441.482 379.731 440.563C373.997 439.329 367.732 439.822 361.913 440.093L341.561 440.749C344.87 439.357 348.92 438.824 352.396 437.807C360.943 435.307 370.117 430.922 379.101 430.55C383.696 430.361 388.198 431.772 392.815 431.526L393.377 431.492Z"/>
	<path fill="#3C4E57" transform="scale(0.666667 0.666667)" d="M315.849 300.938C320.581 301.307 325.502 301.062 330.252 301.047L358.412 300.811L367.289 300.784C368.647 300.795 370.354 300.601 371.624 301.031L370.315 334.558L349.382 324.502C344.517 322.234 339.53 319.956 334.36 318.473C320.49 314.494 304.66 322.192 292.71 328.808C293.878 326.895 295.486 325.183 296.897 323.438L304.836 313.75C308.395 309.513 311.844 304.743 315.849 300.938Z"/>
	<path fill="#3C4657" transform="scale(0.666667 0.666667)" d="M230.615 549.993L252.577 541.289C256.265 532.668 264.813 525.839 271.106 519.121L285.147 503.559L293.259 494.994L293.572 494.627L294.09 494.686L290.92 540.687C290.559 546.727 289.503 553.32 290.116 559.348C290.853 566.596 293.488 574.83 296.131 581.585C292.316 581.683 286.712 578.979 283.137 577.58C271.075 572.862 257.69 567.98 247.18 560.258C246.525 559.16 245.293 558.449 244.247 557.761C241.394 555.882 238.407 554.345 235.315 552.902C233.527 552.067 231.78 551.633 230.615 549.993Z"/>
	<path fill="#3C4E57" transform="scale(0.666667 0.666667)" d="M210.623 668.454C211.813 667.345 213.452 666.69 214.875 665.913L221.207 662.259L252.562 643.426L292.472 617.735C296.327 615.305 300.843 611.634 305.09 610.189L309.426 629.405L329.524 713.416C325.424 712.088 320.416 711.726 316.164 710.858L293.174 705.157C278.118 700.954 263.557 695.069 249.345 688.608L225.31 676.985L210.623 668.454Z"/>
	<path fill="#486787" transform="scale(0.666667 0.666667)" d="M205.204 665.174C179.281 648.805 155.688 628.751 134.748 606.413L118.773 588.621L230.615 549.993C231.78 551.633 233.527 552.067 235.315 552.902C238.407 554.345 241.394 555.882 244.247 557.761C245.293 558.449 246.525 559.16 247.18 560.258C257.69 567.98 271.075 572.862 283.137 577.58C286.712 578.979 292.316 581.683 296.131 581.585C298.004 584.452 298.801 588.82 299.785 592.12L305.09 610.189C300.843 611.634 296.327 615.305 292.472 617.735L252.562 643.426L221.207 662.259L214.875 665.913C213.452 666.69 211.813 667.345 210.623 668.454L205.204 665.174Z"/>
	<path fill="#83858C" transform="scale(0.666667 0.666667)" d="M247.18 560.258C257.69 567.98 271.075 572.862 283.137 577.58C286.712 578.979 292.316 581.683 296.131 581.585C298.004 584.452 298.801 588.82 299.785 592.12L305.09 610.189C300.843 611.634 296.327 615.305 292.472 617.735L252.562 643.426L221.207 662.259L214.875 665.913C213.452 666.69 211.813 667.345 210.623 668.454L205.204 665.174C207.225 662.677 208.167 659.354 209.42 656.419L217.503 636.75L239.744 581.334L243.853 569.275C244.766 566.418 245.45 562.696 247.18 560.258Z"/>
	<path fill="#3C4657" transform="scale(0.666667 0.666667)" d="M331.284 607.965C333.223 606.178 334.845 603.603 336.486 601.51L350.109 583.161L402.454 582.613L419.256 582.494C422.583 582.455 426.019 582.216 429.325 582.53L446.903 607.42L464.767 630.746C463.243 639.146 460.595 647.258 458.271 655.459L448.779 688.395L443.414 704.675C442.765 706.501 440.768 710.34 441.23 712.038L441.689 712.354L422.671 715.497C415.745 716.475 408.78 716.896 401.803 717.326C382.381 718.526 363.025 718.054 343.764 715.214C339.527 715.398 333.637 714.446 329.524 713.416L309.426 629.405C311.837 629.018 328.024 610.97 331.284 607.965Z"/>
	<path fill="#CED7DD" transform="scale(0.666667 0.666667)" d="M331.284 607.965C333.96 608.333 336.643 611.365 338.679 613.16C348.13 621.489 356.221 630.638 364.604 639.983C365.791 641.306 367.198 642.444 368.364 643.745L368.615 644.107C362.855 651.539 360.218 660.297 357.467 669.162L350.725 691.829C348.601 699.624 346.811 707.724 343.764 715.214C339.527 715.398 333.637 714.446 329.524 713.416L309.426 629.405C311.837 629.018 328.024 610.97 331.284 607.965Z"/>
	<path fill="#83858C" transform="scale(0.666667 0.666667)" d="M446.903 607.42L464.767 630.746C463.243 639.146 460.595 647.258 458.271 655.459L448.779 688.395L443.414 704.675C442.765 706.501 440.768 710.34 441.23 712.038L441.689 712.354L422.671 715.497L406.25 649.473C410.585 645.587 415.022 641.79 419.091 637.621L436.02 618.919L442.219 612.281C443.641 610.849 445.325 609.495 446.545 607.899L446.903 607.42Z"/>
	<path fill="#3C4E57" transform="scale(0.666667 0.666667)" d="M298.561 191.135L297.07 191.299L287.972 208.088C285.149 213.214 281.273 218.92 279.556 224.524C277.95 229.767 277.595 236 276.611 241.45L267.082 298.674L264.447 320.355L262.355 338.107C262.007 341.489 261.5 345.143 261.768 348.542C262.072 352.385 264.215 356.976 265.186 360.812C267.49 369.922 269.536 379.605 270.927 388.903C265.855 387.023 259.251 384.473 254.93 381.246C251.656 378.802 251.239 373.944 249.815 370.391C248.75 367.735 246.26 365.928 245.262 363.202C243.367 358.026 242.31 352.266 240.985 346.91C237.472 332.72 234.148 318.789 232.416 304.245C225.912 303.98 218.871 304.309 212.543 302.874C215.439 300.62 218.81 298.978 222.01 297.198L232.157 291.042C232.206 288.855 231.341 286.197 230.939 284.002L228.649 271.777C228.227 269.504 227.976 266.453 226.904 264.416L217.599 262.341C217.172 254.921 216.988 246.92 217.72 239.517C219.001 226.568 222.657 213.107 227.505 201.056C229.547 195.978 231.806 190.777 234.636 186.087C237.508 181.328 240.957 176.928 244.565 172.712C247.653 169.103 251.019 165.686 254.64 162.611L259.501 158.59C259.833 158.32 261.061 157.503 261.226 157.187C261.424 156.81 260.991 154.241 260.941 153.561C260.642 149.5 260.207 145.297 260.388 141.229C260.546 137.652 261.147 134.221 262.675 130.955C268.276 118.979 277.205 110.89 288.362 104.199C294.659 100.423 301.22 96.6787 308.112 94.0986C320.519 89.4535 334.555 87.4162 347.625 85.5198L379.826 80.3757C389.366 79.0147 399.039 78.2802 408.474 76.2731C413.565 75.1899 418.552 73.6752 423.368 71.7004C426.867 70.2658 430.164 68.461 433.724 67.1697C439.709 71.522 444.989 77.245 450.596 82.1058L465.08 94.1965C467.062 95.8975 469.357 97.5231 470.887 99.6495C471.219 100.112 471.652 100.103 472.186 100.271C471.374 100.814 470.954 100.891 470.724 101.886C470.353 103.491 470.544 105.407 470.43 107.062C470.162 110.97 469.229 115.556 467.743 119.185C465.552 124.534 459.581 128.616 455.412 132.51L446.164 141.439C441.637 145.508 436.822 149.125 431.816 152.581C423.495 158.325 413.984 165.62 403.992 168.043C397.46 169.626 390.977 169.365 384.33 168.966C376.396 168.489 368.377 167.707 360.548 166.312L310.312 155.542C299.848 153.193 289.002 150.198 278.273 149.613C274.002 149.38 268.488 149.374 264.855 151.979C263.392 153.028 262.102 154.648 261.025 156.062C262.655 155.68 264.424 155.03 266.084 154.896C276.146 154.082 286.602 157.844 296.319 159.988L319.301 164.197C314.593 168.458 310.747 173.248 306.726 178.125C303.578 181.943 300 185.916 297.685 190.312C298.109 190.924 297.834 190.632 298.561 191.135Z"/>
	<path fill="#3C4657" transform="scale(0.666667 0.666667)" d="M472.186 100.271L513.606 92.1093L535.643 87.1977C537.247 86.8558 540.527 85.8285 542.141 86.1626C544.034 86.5543 546.969 88.7895 548.679 89.7936L574.492 105.949C647.881 156.043 699.666 234.817 716.092 322.231C721.061 348.673 722.691 376.144 720.451 402.983C718.889 421.713 715.227 440.723 710.603 458.925C707.345 471.747 703.677 484.542 699.104 496.967C689.136 524.058 675.12 549.96 658.756 573.693C653.952 580.661 648.586 587.302 643.218 593.841C628.051 612.315 611.426 628.846 592.713 643.738C580.388 653.547 567.797 662.866 554.288 671.009C519.666 691.878 481.249 704.806 441.689 712.354L441.23 712.038C440.768 710.34 442.765 706.501 443.414 704.675L448.779 688.395L458.271 655.459C460.595 647.258 463.243 639.146 464.767 630.746C466.433 623.489 467.192 615.736 468.212 608.355L472.895 573.188L477.868 524.625C478.392 518.213 479.215 511.879 479.278 505.435L389.663 571.301C384.974 568.56 380.627 565.039 376.264 561.802C362.259 551.413 349.071 540.19 336.284 528.339C328.262 520.904 320.144 513.248 313.271 504.718C308.927 499.327 305.502 493.621 302.123 487.6C300.161 484.105 298.038 480.664 296.489 476.96C295.834 474.372 296.115 471.978 296.318 469.356C301.039 471.46 305.402 474.158 309.869 476.738L330.561 489.012L357.31 504.17L364.356 507.967C365.265 508.46 366.479 509.319 367.486 509.541C368.798 509.831 370.686 509.533 372.076 509.499L383.121 509.205C386.657 508.609 390.413 508.872 393.992 508.901L394.151 469.518L370.751 461.041C377.767 460.705 384.928 459.771 391.939 460.281C392.467 458.921 392.236 456.934 392.242 455.466L392.232 445.081L392.806 445.128C395.324 445.413 399.277 442.865 401.8 441.941C403.782 441.214 405.944 440.712 408.01 440.285C416.509 438.53 425.437 439.007 434.018 437.66C430.124 436.914 426.144 436.292 422.336 435.183L410.437 431.232C408.485 430.601 406.389 429.764 404.318 429.707C400.869 429.612 396.809 430.897 393.377 431.492C393.457 426.168 392.87 420.817 392.598 415.5C392.543 414.436 392.765 412.181 392.438 411.238C392.286 410.802 391.885 410.499 391.608 410.13C392.314 410.069 393.158 410.024 393.683 409.461C394.996 408.054 396.064 405.335 397.022 403.639C399.926 398.498 404.193 393.316 409.006 389.865L409.523 389.499L393.404 394.125C394.43 391.774 393.626 385.95 393.62 383.251L393.584 355.058L393.201 342.816L393.191 219C393.779 218.406 393.564 217.748 393.566 216.938C392.87 215.893 393.191 213.905 393.191 212.625C393.81 212 393.565 210.353 393.566 209.438C392.855 208.371 393.191 206.249 393.191 204.938C392.139 204.973 391.243 205.045 390.234 204.692C388.438 204.062 386.426 204.72 384.563 204.122C383.877 203.903 383.545 203.703 382.804 203.686C381.175 203.649 379.683 203.068 378.15 203.038C377.459 203.025 377.092 203.053 376.414 202.827C374.451 202.175 372.302 202.448 370.313 201.841C368.767 201.368 367.695 201.59 366.195 201.403C365.188 201.277 364.228 200.81 363.188 200.692L354.369 199.378C353.065 199.204 351.107 199.274 349.982 198.59L349.688 198.375C348.731 198.431 347.611 198.624 346.705 198.277L346.314 198.094L345.563 198.082C343.852 197.818 342.017 197.711 340.313 197.323C339.153 197.059 338.032 197.199 336.92 196.919C334.684 196.356 331.976 196.716 330.233 195.332C327.338 194.451 323.815 194.381 320.79 193.967L298.561 191.135C297.834 190.632 298.109 190.924 297.685 190.312C300 185.916 303.578 181.943 306.726 178.125C310.747 173.248 314.593 168.458 319.301 164.197L296.319 159.988C286.602 157.844 276.146 154.082 266.084 154.896C264.424 155.03 262.655 155.68 261.025 156.062C262.102 154.648 263.392 153.028 264.855 151.979C268.488 149.374 274.002 149.38 278.273 149.613C289.002 150.198 299.848 153.193 310.312 155.542L360.548 166.312C368.377 167.707 376.396 168.489 384.33 168.966C390.977 169.365 397.46 169.626 403.992 168.043C413.984 165.62 423.495 158.325 431.816 152.581C436.822 149.125 441.637 145.508 446.164 141.439L455.412 132.51C459.581 128.616 465.552 124.534 467.743 119.185C469.229 115.556 470.162 110.97 470.43 107.062C470.544 105.407 470.353 103.491 470.724 101.886C470.954 100.891 471.374 100.814 472.186 100.271Z"/>
	<path fill="#F4EDEA" transform="scale(0.666667 0.666667)" d="M513.297 370.599C520.592 348.508 523.015 325.046 532.373 303.663C535.266 297.05 538.9 290.07 543.46 284.439L540.311 305.002L529.725 367.109L526.542 384.11C526.109 386.405 525.916 388.856 525.259 391.092L497.745 411.491C497.62 411.14 497.406 410.809 497.371 410.439C497.242 409.046 498.327 406.278 498.706 404.872L500.581 396.66C501.223 393.553 501.629 390.398 502.037 387.253L504.3 385.811C508.235 383.109 512.435 375.249 513.297 370.599Z"/>
	<defs>
		<linearGradient id="gradient_0" gradientUnits="userSpaceOnUse" x1="512.52368" y1="368.48029" x2="369.1929" y2="342.06433">
			<stop offset="0" stop-color="#89A2B4"/>
			<stop offset="1" stop-color="#C3D5DE"/>
		</linearGradient>
	</defs>
	<path fill="url(#gradient_0)" transform="scale(0.666667 0.666667)" d="M330.233 195.332L370.714 201.188C377.053 202.183 383.599 203.637 389.992 203.987C400.263 204.55 410.998 202.663 421.272 201.913L472.188 198.607L480.962 211.816L485.828 218.465C486.604 219.521 487.683 220.716 488.128 221.941C488.844 223.913 488.954 226.628 489.284 228.721L492.124 248.625L500.712 306.515L503.645 327.315C504.946 335.29 505.944 343.486 507.887 351.33C509.396 357.425 512.04 363.363 512.848 369.589C512.925 370.182 512.904 369.98 513.297 370.599C512.435 375.249 508.235 383.109 504.3 385.811L502.037 387.253C501.629 390.398 501.223 393.553 500.581 396.66L498.706 404.872C498.327 406.278 497.242 409.046 497.371 410.439C497.406 410.809 497.62 411.14 497.745 411.491L497.375 412.061C496.034 414.268 495.611 417.749 495.01 420.281L489.063 448.782C488.643 450.668 488.428 453.429 487.67 455.147C487.171 456.277 484.006 457.755 482.934 458.438L471.022 466.515C452.096 479.843 432.192 493.266 415.337 509.166L383.121 509.205C386.657 508.609 390.413 508.872 393.992 508.901L394.151 469.518L370.751 461.041C377.767 460.705 384.928 459.771 391.939 460.281C392.467 458.921 392.236 456.934 392.242 455.466L392.232 445.081L392.806 445.128C395.324 445.413 399.277 442.865 401.8 441.941C403.782 441.214 405.944 440.712 408.01 440.285C416.509 438.53 425.437 439.007 434.018 437.66C430.124 436.914 426.144 436.292 422.336 435.183L410.437 431.232C408.485 430.601 406.389 429.764 404.318 429.707C400.869 429.612 396.809 430.897 393.377 431.492C393.457 426.168 392.87 420.817 392.598 415.5C392.543 414.436 392.765 412.181 392.438 411.238C392.286 410.802 391.885 410.499 391.608 410.13C392.314 410.069 393.158 410.024 393.683 409.461C394.996 408.054 396.064 405.335 397.022 403.639C399.926 398.498 404.193 393.316 409.006 389.865L409.523 389.499L393.404 394.125C394.43 391.774 393.626 385.95 393.62 383.251L393.584 355.058L393.201 342.816L393.191 219C393.779 218.406 393.564 217.748 393.566 216.938C392.87 215.893 393.191 213.905 393.191 212.625C393.81 212 393.565 210.353 393.566 209.438C392.855 208.371 393.191 206.249 393.191 204.938C392.139 204.973 391.243 205.045 390.234 204.692C388.438 204.062 386.426 204.72 384.563 204.122C383.877 203.903 383.545 203.703 382.804 203.686C381.175 203.649 379.683 203.068 378.15 203.038C377.459 203.025 377.092 203.053 376.414 202.827C374.451 202.175 372.302 202.448 370.313 201.841C368.767 201.368 367.695 201.59 366.195 201.403C365.188 201.277 364.228 200.81 363.188 200.692L354.369 199.378C353.065 199.204 351.107 199.274 349.982 198.59L349.688 198.375C348.731 198.431 347.611 198.624 346.705 198.277L346.314 198.094L345.563 198.082C343.852 197.818 342.017 197.711 340.313 197.323C339.153 197.059 338.032 197.199 336.92 196.919C334.684 196.356 331.976 196.716 330.233 195.332Z"/>
	<path fill="#3C4657" transform="scale(0.666667 0.666667)" d="M394.151 469.518L370.751 461.041C377.767 460.705 384.928 459.771 391.939 460.281C399.071 462.214 405.354 466.602 411.659 470.335L427.905 479.67L394.151 469.518Z"/>
	<path fill="#3C4E57" transform="scale(0.666667 0.666667)" d="M406.226 300.524L460.478 300.632C468.938 308.704 477.215 317.425 483.537 327.292L472.886 321.739L464.62 318.588C461.747 317.712 458.622 316.879 455.625 316.62C444.834 315.684 435.002 320.033 425.351 324.268C419.53 326.822 413.704 329.353 408.097 332.357L406.226 300.524Z"/>
</svg>
