<?xml version="1.0" encoding="utf-8" ?>
<svg xmlns="http://www.w3.org/2000/svg" xmlns:xlink="http://www.w3.org/1999/xlink" width="512" height="512">
	<path fill="#3C4E57" transform="scale(0.666667 0.666667)" d="M55.3501 768L-0 768L0 -0L768 0L768 768L692.521 768L635.27 768L55.3501 768Z"/>
	<path fill="#3C4657" transform="scale(0.666667 0.666667)" d="M379.49 100.023C379.04 98.4069 377.498 97.5044 376.354 96.3829C375.224 95.2754 374.338 93.7772 373.873 92.2663C372.868 88.9979 373.03 85.9502 374.783 82.9805C376.649 79.8186 379.992 77.5794 383.506 76.6691C392.916 74.2314 402.374 76.8255 410.563 81.6227C413.5 83.3431 431.272 95.1268 431.751 96.9375L430.175 97.341C416.826 95.6514 404.02 96.2449 390.746 98.1118C387.039 98.6331 383.09 98.9905 379.49 100.023Z"/>
	<path fill="#3C4657" transform="scale(0.666667 0.666667)" d="M392.721 66.6755L401.178 64.1505C413.68 61.0222 427.622 59.5083 439.233 66.1024C446.74 70.3662 451.875 77.0051 456.052 84.3951C462.206 95.2832 465.618 106.464 469.102 118.398C470.304 122.515 471.961 126.536 473.026 130.688L473.726 134.789L472.827 134.648C467.609 123.08 461.649 112.656 454.116 102.424C446.411 91.9598 437.521 82.494 425.826 76.5063C413.415 70.1522 397.934 66.4014 384.373 70.6999C386.972 68.9343 389.718 67.5977 392.721 66.6755Z"/>
	<path fill="#3C4657" transform="scale(0.666667 0.666667)" d="M372.421 335.294C370.81 336.23 368.258 335.962 366.408 336.002C360.302 336.133 354.324 336.007 348.265 335.137C318.79 330.902 293.786 310.812 276.58 287.428C264.296 270.734 255.977 250.541 254.719 229.742C254.277 222.437 254.915 215.133 256.032 207.917C259.117 187.978 267.541 169.309 277.187 151.741C280.186 146.28 284.352 141.206 286.697 135.441C288.621 130.713 289.228 125.737 290.378 120.804C292.94 109.809 296.913 100.074 303.228 90.6876C312.241 77.2912 325.587 66.3453 338.543 56.8716L336.221 61.1625C330.362 71.4614 326.907 85.0531 330.171 96.7281C331.497 101.473 334.414 106.183 338.844 108.564C343.3 110.959 349.298 109.454 353.922 108.102L346.49 123.574L340.931 133.898C345.43 128.632 349.003 123.095 352.572 117.188C353.123 118.039 351.095 120.023 351.375 121.312C351.745 120.609 351.872 120.503 352.538 120.062L352.384 120.544C351.786 122.296 350.329 124.182 349.346 125.785C347.256 129.196 345.273 132.653 342.869 135.862C341.345 137.896 337.523 141.086 336.938 143.457L337.688 143.672C341.957 141.211 344.53 137.548 347.157 133.503C348.353 131.663 349.327 129.779 351.086 128.404C351.467 128.106 351.266 128.165 351.75 128.25L351.236 129.189L351.546 129.828L351.672 130.58C349.24 137.98 347.508 146.322 343.199 152.897C341.609 155.324 339.319 157.475 337.311 159.564C335.434 161.516 335.49 174.869 335.694 178.5C335.798 180.368 336.956 185.684 336 187.164C331.341 187.301 324.07 179.007 320.348 182.708C317.634 185.406 317.803 190.439 317.979 193.983C318.216 198.753 318.957 203.566 319.643 208.289C320.589 214.805 321.463 221.643 324.932 227.394C326.382 229.799 328.314 231.864 330.2 233.928C330.601 234.366 330.466 234.169 330.693 234.668C329.527 235.598 328.641 237.011 328.452 238.513C328.176 240.697 328.622 243.108 330.078 244.812C331.42 246.382 333.488 247.802 335.625 247.846C338.571 247.907 340.617 246.433 342.713 244.524C345.132 259.145 349.476 274.171 359.644 285.381C361.939 287.91 364.562 290.167 367.008 292.551C367.753 293.277 368.988 294.226 369.518 295.115C370.459 296.694 370.361 300.749 370.552 302.625C371.661 313.57 372.426 324.287 372.421 335.294Z"/>
	<defs>
		<linearGradient id="gradient_0" gradientUnits="userSpaceOnUse" x1="378.24088" y1="215.68034" x2="607.56775" y2="142.3558">
			<stop offset="0" stop-color="#1E3247"/>
			<stop offset="1" stop-color="#3B4F62"/>
		</linearGradient>
	</defs>
	<path fill="url(#gradient_0)" transform="scale(0.666667 0.666667)" d="M339.895 69.0004C343.498 58.3608 350.149 51.3822 358.557 44.2568C364.611 39.1273 370.9 34.723 378.009 31.1843C384.032 28.1858 390.605 26.253 397.125 24.6687C412.924 20.8298 429.376 19.4964 445.5 21.9785C454.077 23.2987 462.345 25.9 470.547 28.6657C484.676 33.4301 499.786 42.9402 509.661 54.2135C512.782 57.7771 515.066 62.367 518.366 65.6671C519.434 66.7354 520.647 66.9696 522 67.5007C525.171 68.7453 528.113 71.0221 529.59 74.1564C530.787 76.6975 531.342 80.0335 530.204 82.691C529.589 84.129 528.544 85.2875 527.534 86.4584C529.497 89.9147 532.022 93.0158 534.263 96.2916C539.925 104.568 545.622 112.721 550.504 121.5C555.214 129.97 558.901 139.151 562.533 148.125L580.696 199.766C584.566 212.723 589.03 226.922 589.756 240.508C592.631 234.996 595.057 229.058 597.046 223.168C597.371 222.208 597.917 219.358 598.752 219.002C597.858 227.793 593.455 237.348 589.039 244.88C597.118 245.198 610.385 245.836 616.594 239.912C619.182 237.443 620.858 233.758 622.013 230.438C622.503 229.029 622.924 225.923 623.892 225.002C624.018 226.903 623.492 228.761 623.157 230.623L621.093 241.071C620.654 243.335 619.727 245.404 618.475 247.329L616.38 251.061L626.25 242.142C629.09 239.588 632.061 236.534 635.162 234.339C637.455 232.716 639.26 229.261 641.921 228.366C641.181 229.298 640.505 230.159 639.912 231.188L637.663 234.539C634.383 239.456 630.13 243.599 626.226 248.012L601.54 276.959C598.391 280.814 594.85 284.514 592.184 288.728C598.995 288.735 605.722 288.047 612.101 285.492C623.402 280.966 630.437 272.933 635.285 261.961L637.831 254.936C636.702 264.577 633.364 273.909 629.306 282.699C627.936 285.665 626.206 288.545 625.089 291.612C626.964 291.017 628.963 290.47 630.679 289.493C634.027 287.585 637.13 284.172 639.86 281.445C641.875 279.433 643.786 276.784 645.188 274.316L645.54 274.875C643.041 281.214 637.852 287.072 633.476 292.19C617.234 311.182 598.299 327.674 575.18 337.753C566.167 341.683 556.853 344.413 547.299 346.654C527.314 351.341 506.284 353.271 485.812 351.112C485.196 350.445 485.455 350.828 485.06 349.947C486.284 337.562 487.649 325.335 487.814 312.867L487.459 297.562C487.416 296.713 486.892 294.099 487.118 293.436C487.163 293.305 488.386 292.515 488.637 292.327L493.563 288.314C495.979 286.176 498.04 283.824 499.8 281.117C506.383 270.991 507.083 259.012 509.605 247.549C510.538 247.818 511.491 248.093 512.46 248.197C515.733 248.549 519.13 247.572 521.602 245.366C523.731 243.466 525.486 240.808 526.934 238.372C532.171 229.564 534.87 218.25 535.618 208.092L535.852 206.625C534.943 205.191 527.436 203.437 525.295 202.729C519.055 200.666 513.431 197.813 507.711 194.61C501.753 190.466 497.216 185.392 493.396 179.265C491.643 176.455 489.87 173.086 487.447 170.79C478.97 162.757 467.224 168.53 458.002 171.534C453.027 173.154 447.357 174.816 442.102 174.788C441.284 174.783 441.271 174.487 440.72 173.93C440.317 172.791 440.232 172.4 440.594 171.188C441.544 170.201 442.456 169.586 443.723 169.046C447.688 167.357 452.138 166.322 456.307 165.225C464.565 163.052 475.255 159.561 483.505 162.948L484.097 163.194L472.636 137.645L472.311 135.13L472.622 135.748L472.827 134.648L473.726 134.789L473.026 130.688C471.961 126.536 470.304 122.515 469.102 118.398C465.618 106.464 462.206 95.2832 456.052 84.3951C451.875 77.0051 446.74 70.3662 439.233 66.1024C427.622 59.5083 413.68 61.0222 401.178 64.1505L392.721 66.6755C391.363 66.1489 391.145 65.9453 389.754 66.5625C381.658 70.1561 373.354 77.438 370.2 85.875C369.058 88.9321 368.636 91.8546 370.119 94.8711C371.041 96.7455 373.477 98.8033 373.684 100.688C372.777 101.064 371.836 100.919 370.875 100.974L363.975 101.601C358.88 102.121 353.777 103.245 348.643 103.309C347.454 103.324 346.212 103.183 345.097 102.755C342.347 101.699 340.522 98.426 339.55 95.823C337.328 89.8713 337.177 82.7038 338.255 76.4921L339.895 69.0004Z"/>
	<defs>
		<linearGradient id="gradient_1" gradientUnits="userSpaceOnUse" x1="536.7171" y1="611.47266" x2="620.67285" y2="422.08624">
			<stop offset="0" stop-color="#98AAAF"/>
			<stop offset="1" stop-color="#E4EBEA"/>
		</linearGradient>
	</defs>
	<path fill="url(#gradient_1)" transform="scale(0.666667 0.666667)" d="M482.742 370.198L483.016 371.625L483.523 371.968C485.564 373.395 487.492 375.838 489.248 377.653C494.392 382.971 499.496 387.968 503.604 394.157C502.853 390.621 501.485 387.382 500.247 384C497.969 377.773 495.548 371.524 493.767 365.14L520.352 393.74C525.115 399.091 530.046 404.349 534.241 410.166C535.827 412.365 537.549 414.623 538.692 417.085L541.753 422.359C547.959 423.629 554.172 425.908 560.284 427.648L599.501 437.813C620.362 442.348 642.407 443.164 662.728 449.671C668.161 451.41 673.42 453.92 676.69 458.799C679.876 463.552 681.687 469.738 682.821 475.296C684.628 484.153 685.471 493.301 686.422 502.291L690.515 568.531L690.744 579.418C690.766 580.866 691.033 582.822 690.79 584.225C691.613 591.756 691.317 599.703 691.407 607.288L691.859 645.713L692.521 768L635.27 768C626.813 757.48 616.607 747.786 604.701 741.276C600.888 739.191 596.281 738.19 592.718 735.899L592.441 735.713L549.606 730.719C548.645 730.44 547.701 730.44 547.169 729.562C552.726 726.575 559.653 725.189 565.776 723.832C571.735 721.319 578.5 719.926 584.834 718.637C588.554 717.88 593.151 717.444 596.528 715.744C596.405 713.301 597.53 710.299 598.074 707.87L602.484 688.571L613.479 637.043C615.676 627.4 618.962 617.809 620.748 608.118L620.342 607.96C620.859 606.447 621.024 604.65 621.469 603.094C622.337 600.056 623.576 596.973 624.281 593.906C624.387 593.448 624.242 592.951 624.375 592.5C624.617 591.68 625.076 591.345 625.148 590.402C625.23 589.348 625.673 588.006 625.969 586.969C626.19 586.195 626.561 585.529 626.725 584.713L627.094 583.219C627.465 582.218 627.307 582.926 627.469 582.117L627.844 580.594C628.27 579.442 628.661 578.153 628.875 576.938C628.067 576.324 627.286 575.692 626.344 575.297C625.462 574.926 624.636 574.465 623.815 573.972C622.679 573.289 621.249 573.727 619.964 573.399C619.143 573.189 618.411 573.341 617.625 573.182C613.7 572.388 609.24 572.778 605.208 572.782C603.1 572.784 600.51 572.509 598.457 572.91C597.725 573.053 596.966 573.031 596.252 573.184C594.331 573.594 592.462 573.296 590.582 573.663C589.853 573.805 589.085 573.775 588.377 573.934C585.941 574.479 583.376 573.856 581.062 574.451C579.658 574.812 578.204 574.482 576.792 574.825L576.373 574.958C573.862 574.031 569.269 574.726 566.507 574.693C565.432 574.681 564.525 574.337 563.459 574.527L562.867 574.64L551.712 574.346C549.361 574.363 546.701 575.027 544.388 574.572C542.755 574.251 541.362 574.866 539.779 574.497C539.125 574.344 538.686 574.269 538.014 574.388L537.39 574.512L536.834 574.005C536.397 573.996 535.936 573.837 535.523 573.978C534.994 574.158 532.708 577.734 532.125 578.482C529.663 581.641 515.292 600.638 513.435 601.215L541.881 564.624L558.717 540.16L570.918 522.631C571.858 521.18 575.414 516.032 575.192 514.576L500.326 472.767L506.091 443.189C505.776 441.281 505.471 440.703 504.183 439.249C499.123 433.536 490.627 433.809 483.578 433.315L482.583 433.648C481.777 430.813 481.779 427.437 481.502 424.5C480.385 412.659 480.148 400.942 480.752 389.062C481.073 382.75 481.415 376.39 482.742 370.198Z"/>
	<path fill="#83858C" transform="scale(0.666667 0.666667)" d="M509.407 420.346C509.74 416.05 509.877 411.304 509.367 407.027L509.279 406.312C508.105 395.907 504.498 386.025 501.353 376.125L501.562 375.745C504.034 381.345 507.76 386.131 509.997 391.789C512.804 398.885 512.741 405.52 512.579 413.012L508.27 434.583L507.894 434.629C508.92 430.086 509.043 424.993 509.407 420.346Z"/>
	<path fill="#CED7DD" transform="scale(0.666667 0.666667)" d="M483.578 433.315C484.983 432.499 485.544 429.681 486.232 428.159C487.288 425.825 488.538 423.389 490.503 421.688C494.12 418.554 499.18 418.876 503.625 418.474C505.371 418.316 507.267 417.882 509.009 417.959L509.407 420.346C509.043 424.993 508.92 430.086 507.894 434.629C507.292 435.83 507.381 436.163 507.188 437.441L506.855 438.188L506.656 439.127C506.355 440.524 506.138 441.755 506.091 443.189C505.776 441.281 505.471 440.703 504.183 439.249C499.123 433.536 490.627 433.809 483.578 433.315Z"/>
	<path fill="#474444" transform="scale(0.666667 0.666667)" d="M620.748 608.118C621.301 607.547 637.099 550.919 638.986 544.5L655.121 491.837C657.321 485.387 659.906 479.113 662.724 472.912C663.948 470.218 665.04 467.387 666.507 464.82L636.089 573.652C633.061 581.82 630.729 590.448 628.285 598.813C626.824 603.811 625.061 608.689 624.084 613.811C630.244 605.992 634.377 596.782 638.812 587.922C640.924 583.704 643.331 579.513 645.103 575.148L662.256 539.749L662.783 628.978C663.559 629.439 662.864 632.775 663.483 633.935L663.866 632.808L664.269 633.313C665.641 632.469 667.705 631.268 669.256 630.957C670.274 630.752 671.335 630.429 672.296 630.028C673.562 629.5 674.394 629.561 675.655 629.261C676.629 629.029 677.591 628.951 678.58 628.832C680.235 628.632 683.883 628.039 685.37 628.798L685.645 628.993L687.5 628.58C688.818 628.383 689.651 627.82 691.033 627.75L691.033 621.375L691.125 620.812L690.941 615.188C690.335 614.278 690.563 612.959 690.562 611.863C690.558 608.994 690.898 605.83 690.658 603C690.526 601.437 690.56 599.885 690.566 598.312C689.851 597.206 690.354 595.09 690.431 593.782C690.61 590.743 690.464 587.705 690.746 584.668L690.79 584.225C691.613 591.756 691.317 599.703 691.407 607.288L691.859 645.713L692.521 768L635.27 768C626.813 757.48 616.607 747.786 604.701 741.276C600.888 739.191 596.281 738.19 592.718 735.899L592.441 735.713L549.606 730.719C548.645 730.44 547.701 730.44 547.169 729.562C552.726 726.575 559.653 725.189 565.776 723.832C571.735 721.319 578.5 719.926 584.834 718.637C588.554 717.88 593.151 717.444 596.528 715.744C596.405 713.301 597.53 710.299 598.074 707.87L602.484 688.571L613.479 637.043C615.676 627.4 618.962 617.809 620.748 608.118Z"/>
	<path fill="#F4EDEA" transform="scale(0.666667 0.666667)" d="M596.528 715.744C600.799 714.833 605.198 714.58 609.539 714.154C619.646 713.164 629.506 712.497 639.631 713.795C641.94 714.091 645.082 714.349 647.088 715.578C647.696 715.95 648.167 716.483 648.648 717C648.009 719.242 643.865 721.326 641.878 722.437L637.388 724.76C644.248 727.88 650.388 732.577 655.769 737.807C657.512 739.502 659.208 741.831 661.087 743.301C661.228 745.289 660.801 749.302 659.421 750.819C656.757 753.75 646.919 751.604 643.816 750.111C640.817 748.668 638.177 746.369 635.438 744.493C631.707 741.938 627.614 739.737 623.264 738.45C613.676 735.612 602.393 735.678 592.441 735.713L549.606 730.719C548.645 730.44 547.701 730.44 547.169 729.562C552.726 726.575 559.653 725.189 565.776 723.832C571.735 721.319 578.5 719.926 584.834 718.637C588.554 717.88 593.151 717.444 596.528 715.744Z"/>
	<path fill="#CED7DD" transform="scale(0.666667 0.666667)" d="M596.528 715.744C600.799 714.833 605.198 714.58 609.539 714.154C619.646 713.164 629.506 712.497 639.631 713.795C641.94 714.091 645.082 714.349 647.088 715.578C647.696 715.95 648.167 716.483 648.648 717C648.009 719.242 643.865 721.326 641.878 722.437L637.388 724.76C632.643 723.065 627.728 722.658 622.75 722.185C609.668 720.94 596.945 721.288 583.881 722.545L573.279 723.605C570.811 723.885 568.214 724.488 565.776 723.832C571.735 721.319 578.5 719.926 584.834 718.637C588.554 717.88 593.151 717.444 596.528 715.744Z"/>
	<defs>
		<linearGradient id="gradient_2" gradientUnits="userSpaceOnUse" x1="642.46069" y1="768.22321" x2="655.02478" y2="624.65637">
			<stop offset="0" stop-color="#657D8C"/>
			<stop offset="1" stop-color="#99ACB3"/>
		</linearGradient>
	</defs>
	<path fill="url(#gradient_2)" transform="scale(0.666667 0.666667)" d="M690.79 584.225C691.613 591.756 691.317 599.703 691.407 607.288L691.859 645.713L692.521 768L635.27 768C626.813 757.48 616.607 747.786 604.701 741.276C600.888 739.191 596.281 738.19 592.718 735.899L592.441 735.713C602.393 735.678 613.676 735.612 623.264 738.45C627.614 739.737 631.707 741.938 635.438 744.493C638.177 746.369 640.817 748.668 643.816 750.111C646.919 751.604 656.757 753.75 659.421 750.819C660.801 749.302 661.228 745.289 661.087 743.301C661.557 743.152 661.989 742.942 662.438 742.74C663.412 740.863 662.99 737.974 662.972 735.862L662.941 723.575L662.764 674.296L662.783 628.978C663.559 629.439 662.864 632.775 663.483 633.935L663.866 632.808L664.269 633.313C665.641 632.469 667.705 631.268 669.256 630.957C670.274 630.752 671.335 630.429 672.296 630.028C673.562 629.5 674.394 629.561 675.655 629.261C676.629 629.029 677.591 628.951 678.58 628.832C680.235 628.632 683.883 628.039 685.37 628.798L685.645 628.993L687.5 628.58C688.818 628.383 689.651 627.82 691.033 627.75L691.033 621.375L691.125 620.812L690.941 615.188C690.335 614.278 690.563 612.959 690.562 611.863C690.558 608.994 690.898 605.83 690.658 603C690.526 601.437 690.56 599.885 690.566 598.312C689.851 597.206 690.354 595.09 690.431 593.782C690.61 590.743 690.464 587.705 690.746 584.668L690.79 584.225Z"/>
	<path fill="#F4EDEA" transform="scale(0.666667 0.666667)" d="M379.49 100.023C383.09 98.9905 387.039 98.6331 390.746 98.1118C404.02 96.2449 416.826 95.6514 430.175 97.341C442.105 98.3465 450.672 106.774 458.023 115.505C461.833 120.031 465.164 124.997 468.181 130.081C469.618 132.502 470.902 135.458 472.636 137.645L484.097 163.194L483.505 162.948C475.255 159.561 464.565 163.052 456.307 165.225C452.138 166.322 447.688 167.357 443.723 169.046C442.456 169.586 441.544 170.201 440.594 171.188C440.232 172.4 440.317 172.791 440.72 173.93C441.271 174.487 441.284 174.783 442.102 174.788C447.357 174.816 453.027 173.154 458.002 171.534C467.224 168.53 478.97 162.757 487.447 170.79C489.87 173.086 491.643 176.455 493.396 179.265C497.216 185.392 501.753 190.466 507.711 194.61C513.431 197.813 519.055 200.666 525.295 202.729C527.436 203.437 534.943 205.191 535.852 206.625L535.618 208.092C534.87 218.25 532.171 229.564 526.934 238.372C525.486 240.808 523.731 243.466 521.602 245.366C519.13 247.572 515.733 248.549 512.46 248.197C511.491 248.093 510.538 247.818 509.605 247.549C507.083 259.012 506.383 270.991 499.8 281.117C498.04 283.824 495.979 286.176 493.563 288.314L488.637 292.327C488.386 292.515 487.163 293.305 487.118 293.436C486.892 294.099 487.416 296.713 487.459 297.562L487.814 312.867C487.649 325.335 486.284 337.562 485.06 349.947L482.742 370.198C481.415 376.39 481.073 382.75 480.752 389.062C480.148 400.942 480.385 412.659 481.502 424.5C481.779 427.437 481.777 430.813 482.583 433.648L483.578 433.315C490.627 433.809 499.123 433.536 504.183 439.249C505.471 440.703 505.776 441.281 506.091 443.189L500.326 472.767C496.409 492.932 490.926 512.405 484.43 531.88C476.13 556.76 466.36 581.071 452.279 603.314L437.858 576.807L422.769 544.853L376.206 446.911C369.428 428.598 361.298 410.191 358.418 390.75C357.805 386.61 357.178 382.256 357.594 378.068C357.905 374.942 359.216 372.294 360.204 369.365C363.737 362.243 367.576 355.119 369.938 347.503C371.185 343.478 371.859 339.461 372.421 335.294C372.426 324.287 371.661 313.57 370.552 302.625C370.361 300.749 370.459 296.694 369.518 295.115C368.988 294.226 367.753 293.277 367.008 292.551C364.562 290.167 361.939 287.91 359.644 285.381C349.476 274.171 345.132 259.145 342.713 244.524C340.617 246.433 338.571 247.907 335.625 247.846C333.488 247.802 331.42 246.382 330.078 244.812C328.622 243.108 328.176 240.697 328.452 238.513C328.641 237.011 329.527 235.598 330.693 234.668C330.466 234.169 330.601 234.366 330.2 233.928C328.314 231.864 326.382 229.799 324.932 227.394C321.463 221.643 320.589 214.805 319.643 208.289C318.957 203.566 318.216 198.753 317.979 193.983C317.803 190.439 317.634 185.406 320.348 182.708C324.07 179.007 331.341 187.301 336 187.164C336.956 185.684 335.798 180.368 335.694 178.5C335.49 174.869 335.434 161.516 337.311 159.564C339.319 157.475 341.609 155.324 343.199 152.897C347.508 146.322 349.24 137.98 351.672 130.58C352.929 127.622 353.639 124.399 354.51 121.312C356.84 113.056 361.959 108.622 368.865 103.964C372.416 102.137 375.628 101.015 379.49 100.023Z"/>
	<path fill="#3C4657" transform="scale(0.666667 0.666667)" d="M434.57 235.312L436.312 235.112C437.624 235.745 437.675 235.979 438.383 237.188C438.354 238.846 437.945 238.974 436.885 240.188C435.99 240.295 435.947 240.19 435.234 239.69C434.19 238.958 433.375 238.091 433.134 236.812C433.499 235.916 433.75 235.857 434.57 235.312Z"/>
	<path fill="#3C4657" transform="scale(0.666667 0.666667)" d="M412.175 233.812L413.438 234.085C414.257 235.019 414.81 235.357 414.938 236.615C414.305 237.827 413.807 238.386 412.688 239.177C411.527 239.348 411.071 239.063 410.062 238.561C409.273 237.419 409.391 237.451 409.617 236.062C410.4 234.98 411.016 234.468 412.175 233.812Z"/>
	<path fill="#83858C" transform="scale(0.666667 0.666667)" d="M353.226 188.65C352.724 188.256 352.978 188.501 352.505 187.875C352.935 187.624 353.183 187.55 353.684 187.563C358.199 187.683 362.648 184.303 367.022 183.087C375.6 180.702 384.694 180.512 392.594 184.994C391.643 185.232 388.214 183.635 387.098 183.246C384.046 182.184 380.662 182.562 377.514 183.024C373.852 183.29 370.474 184.469 366.976 185.479C363.566 186.464 360.421 186.759 357.398 188.876L357.334 188.867C355.957 188.248 355.209 187.994 353.67 188.02L353.226 188.65Z"/>
	<path fill="#CED7DD" transform="scale(0.666667 0.666667)" d="M357.398 188.876C360.421 186.759 363.566 186.464 366.976 185.479C370.474 184.469 373.852 183.29 377.514 183.024C378.551 183.701 379.303 183.973 380.498 184.272C381.787 184.593 382.907 185.081 384.235 185.311C384.773 185.403 384.589 185.377 385.232 185.657C380.31 185.674 375.326 185.747 370.5 186.84C367.283 187.569 363.841 189.166 360.584 189.413C359.486 189.497 358.431 189.205 357.398 188.876Z"/>
	<path fill="#CED7DD" transform="scale(0.666667 0.666667)" d="M450.428 193.477C451.352 193.611 451.955 193.781 452.812 194.109L457.777 195.504C462.589 196.832 467.473 196.46 472.386 196.068C473.656 195.967 475.441 196.044 476.55 195.417C478.28 195.742 479.969 195.766 481.721 195.795C481.175 196.776 480.905 197.037 479.87 197.35C475.66 198.623 470.162 200.441 465.75 200.21C462.833 200.056 459.615 198.468 456.933 197.336C454.753 196.416 452.483 195.607 450.397 194.492L450.428 193.477Z"/>
	<path fill="#CED7DD" transform="scale(0.666667 0.666667)" d="M396.65 192.238L398.365 193.629L397.963 193.736C395.69 194.356 394.317 195.651 392.529 197.11C390.739 198.571 389.174 200.169 387.195 201.397C381.851 204.711 375.155 204.983 369.123 204.19L369.225 203.558C369.474 201.915 369.81 199.267 369.747 197.653L369.602 196.97L369.768 196.532L370.064 196.56C375.355 197.221 382.43 197.214 387.58 195.845C390.656 195.027 393.735 193.529 396.65 192.238Z"/>
	<path fill="#3C4657" transform="scale(0.666667 0.666667)" d="M365.434 162.793C368.121 162.486 370.758 162.731 373.4 163.241L389.42 166.512C393.684 167.379 399.19 168.005 402.911 170.276C405.225 171.689 406.61 173.9 408.089 176.094C404.111 174.358 398.879 174.204 394.552 173.585L379.97 170.999C372.814 169.517 365.706 167.438 358.309 168.564C355.82 168.943 353.124 169.999 350.708 170.743C354.264 166.371 360.169 164.141 365.434 162.793Z"/>
	<path fill="#3C4657" transform="scale(0.666667 0.666667)" d="M450.397 194.492C449.519 194.099 448.703 193.707 447.747 193.539L447.562 192.924C451.9 187.95 456.641 185.186 463.319 184.756C468.204 184.441 473.075 185.894 477.672 187.397C482.095 188.843 486.472 190.44 490.5 192.796L491.815 193.567C488.489 194.824 485.248 195.427 481.721 195.795C479.969 195.766 478.28 195.742 476.55 195.417C475.441 196.044 473.656 195.967 472.386 196.068C467.473 196.46 462.589 196.832 457.777 195.504L452.812 194.109C451.955 193.781 451.352 193.611 450.428 193.477L450.397 194.492Z"/>
	<path fill="#F4EDEA" transform="scale(0.666667 0.666667)" d="M450.428 193.477L449.438 192.866C450.163 191.282 454.019 189.372 455.555 188.823L457.5 188.217L459.463 187.626C460.843 189.78 462.48 192.9 465.223 193.44C465.807 193.555 466.064 193.625 466.537 193.207C467.725 192.157 468.087 190.695 468.277 189.188C470.104 188.692 474.82 189.385 476.468 190.33C477.31 190.812 477.32 190.927 477.543 191.812L476.55 195.417C475.441 196.044 473.656 195.967 472.386 196.068C467.473 196.46 462.589 196.832 457.777 195.504L452.812 194.109C451.955 193.781 451.352 193.611 450.428 193.477Z"/>
	<path fill="#3C4657" transform="scale(0.666667 0.666667)" d="M385.232 185.657C392.356 187.368 398.351 190.317 403.056 196.112L398.365 193.629L396.65 192.238C393.735 193.529 390.656 195.027 387.58 195.845C382.43 197.214 375.355 197.221 370.064 196.56L369.768 196.532L369.602 196.97C366.195 196.716 362.676 196.522 359.68 194.685C357.302 193.228 355.183 190.65 353.226 188.65L353.67 188.02C355.209 187.994 355.957 188.248 357.334 188.867L357.398 188.876C358.431 189.205 359.486 189.497 360.584 189.413C363.841 189.166 367.283 187.569 370.5 186.84C375.326 185.747 380.31 185.674 385.232 185.657Z"/>
	<path fill="#F4EDEA" transform="scale(0.666667 0.666667)" d="M387.004 188.284C390.265 189.35 393.757 190.346 396.65 192.238C393.735 193.529 390.656 195.027 387.58 195.845C382.43 197.214 375.355 197.221 370.064 196.56L369.768 196.532L369.314 196.192C368.669 195.565 368.258 193.629 368.329 192.75C368.411 191.735 369.012 191.158 369.86 190.688C370.84 190.144 372.102 189.442 373.187 189.671C373.729 191.068 374.66 192.719 375.839 193.666L376.425 194.114C377.051 194.68 377.658 195.094 378.474 195.325C379.878 195.723 381.729 195.534 383.004 194.812C385.587 193.35 386.328 191.004 387.004 188.284Z"/>
	<path fill="#CED7DD" transform="scale(0.666667 0.666667)" d="M507.711 194.61C513.431 197.813 519.055 200.666 525.295 202.729C527.436 203.437 534.943 205.191 535.852 206.625L535.618 208.092L535.297 207.941C533.794 208.582 532.988 211.195 532.209 212.683C530.104 216.702 528.137 221.449 524.804 224.61C522.404 226.886 519.259 228.399 516.227 229.643C516.287 228.67 517.366 227.265 517.901 226.4C520.06 222.912 522.482 219.515 522.633 215.25C522.694 213.524 522.468 211.577 521.267 210.258C520.181 210.393 516.734 217.169 515.619 218.421C514.281 219.926 512.728 220.952 511 221.953L508.939 204.767C508.448 201.31 507.738 198.127 507.711 194.61Z"/>
	<path fill="#D33442" transform="scale(0.666667 0.666667)" d="M413.562 256.915C416.784 256.385 419.316 258.081 422.166 259.4L425.123 257.962C430.42 255.769 439.314 262.808 444.124 265.077C447.37 266.608 450.83 267.689 454.12 269.147C446.533 272.751 439.436 277.05 431.342 279.497L424.721 280.787C412.22 282.178 400.679 274.508 391.345 267.076C399.041 264.324 405.75 259.568 413.562 256.915Z"/>
	<path fill="#B42F38" transform="scale(0.666667 0.666667)" d="M432.661 268.657L432.738 268.616C434.676 268.13 436.96 268.324 438.95 268.309C440.856 268.295 443.137 267.998 444.934 268.688C444.685 268.908 444.501 269.238 444.188 269.349C442.663 269.888 438.736 269.401 436.974 269.444C431.688 269.571 426.538 270.205 421.551 272.016C419.731 271.286 418.102 270.792 416.151 270.536L415.589 270.465L401.698 269.719L402.938 269.625C403.424 269.582 405.229 269.625 405.562 269.441C405.872 269.271 405.993 268.843 406.312 268.691C407.063 268.334 415.809 268.691 417.188 268.691C417.986 269.219 418.508 269.064 419.438 269.066C420.102 268.401 427.304 269.376 429 268.993C430.185 268.725 431.446 268.723 432.661 268.657Z"/>
	<path fill="#CED7DD" transform="scale(0.666667 0.666667)" d="M422.769 544.853L435.785 535.833C443.269 530.189 450.707 523.577 456.06 515.838C459.526 510.826 461.879 504.699 464.242 499.096C470.04 485.346 475.192 471.417 478.677 456.889C479.78 452.29 481.012 447.57 481.633 442.877L482.091 443.542C480.446 456.846 477.475 469.837 473.986 482.771C466.721 509.699 456.622 535.759 445.186 561.179L441.317 570.29C440.373 572.535 439.489 574.957 437.858 576.807L422.769 544.853Z"/>
	<path fill="#CED7DD" transform="scale(0.666667 0.666667)" d="M339.393 235.897L340.005 235.625C340.817 236.699 341.446 237.735 341.864 239.011C342.184 239.992 342.516 240.808 342.702 241.826C342.908 242.963 343.285 244.332 343.594 245.439L343.79 245.837C344.394 247.278 343.996 249.169 344.585 250.815C344.739 251.247 344.805 251.606 344.878 252.055C344.975 252.644 345.069 252.997 345.263 253.536C345.847 255.162 346.131 256.969 346.612 258.634C347.772 262.646 349.122 266.583 350.839 270.393C351.294 271.403 351.697 272.248 352.271 273.208C352.812 274.111 353.116 275.12 353.623 276.036C354.64 277.87 356.157 279.71 357.39 281.43C358.251 282.632 359.437 283.558 360.287 284.775C361.555 286.59 363.42 288.044 365.137 289.391C366.938 290.804 368.654 292.946 370.312 294.566L370.767 294.555C372.919 294.782 377.141 298.722 379.036 300.111C386.783 305.791 395.461 312.568 404.274 316.324C415.311 321.027 436.875 320.792 448.376 317.252C452.392 316.016 455.894 313.863 459.77 312.331L459.482 312.558C453.123 317.645 447.451 324.096 442.04 330.156C426.658 347.389 412.991 365.43 402.683 386.25C400.113 391.442 397.34 397.15 396.058 402.816C397.155 404.223 398.221 405.583 399.575 406.759C402.478 409.281 413.65 416.844 414.439 419.907C413.203 421.825 412.001 423.294 410.188 424.723C406.058 427.976 401.102 430.388 396.619 433.112L380.072 444.077C379.046 444.79 376.745 445.851 376.206 446.911C369.428 428.598 361.298 410.191 358.418 390.75C357.805 386.61 357.178 382.256 357.594 378.068C357.905 374.942 359.216 372.294 360.204 369.365C363.737 362.243 367.576 355.119 369.938 347.503C371.185 343.478 371.859 339.461 372.421 335.294C372.426 324.287 371.661 313.57 370.552 302.625C370.361 300.749 370.459 296.694 369.518 295.115C368.988 294.226 367.753 293.277 367.008 292.551C364.562 290.167 361.939 287.91 359.644 285.381C349.476 274.171 345.132 259.145 342.713 244.524L342.623 244.418C342.319 241.474 341.563 238.031 339.393 235.897Z"/>
	<path fill="#474444" transform="scale(0.666667 0.666667)" d="M323.122 391.843C324.877 389.386 326.312 386.645 327.938 384.093L334.186 375.034C339.141 367.868 344.583 360.341 352.224 355.835C356.206 353.488 360.717 352.024 365.002 350.335C363.726 354.254 358.773 366 360.204 369.365C359.216 372.294 357.905 374.942 357.594 378.068C357.178 382.256 357.805 386.61 358.418 390.75C361.298 410.191 369.428 428.598 376.206 446.911L422.769 544.853L437.858 576.807L452.279 603.314C466.36 581.071 476.13 556.76 484.43 531.88C490.926 512.405 496.409 492.932 500.326 472.767L575.192 514.576C575.414 516.032 571.858 521.18 570.918 522.631L558.717 540.16L541.881 564.624L513.435 601.215C515.292 600.638 529.663 581.641 532.125 578.482C532.708 577.734 534.994 574.158 535.523 573.978C535.936 573.837 536.397 573.996 536.834 574.005L537.39 574.512L538.014 574.388C538.686 574.269 539.125 574.344 539.779 574.497C541.362 574.866 542.755 574.251 544.388 574.572C546.701 575.027 549.361 574.363 551.712 574.346L562.867 574.64L563.459 574.527C564.525 574.337 565.432 574.681 566.507 574.693C569.269 574.726 573.862 574.031 576.373 574.958L576.792 574.825C578.204 574.482 579.658 574.812 581.062 574.451C583.376 573.856 585.941 574.479 588.377 573.934C589.085 573.775 589.853 573.805 590.582 573.663C592.462 573.296 594.331 573.594 596.252 573.184C596.966 573.031 597.725 573.053 598.457 572.91C600.51 572.509 603.1 572.784 605.208 572.782C609.24 572.778 613.7 572.388 617.625 573.182C618.411 573.341 619.143 573.189 619.964 573.399C621.249 573.727 622.679 573.289 623.815 573.972C624.636 574.465 625.462 574.926 626.344 575.297C627.286 575.692 628.067 576.324 628.875 576.938C628.661 578.153 628.27 579.442 627.844 580.594L627.469 582.117C627.307 582.926 627.465 582.218 627.094 583.219L626.725 584.713C626.561 585.529 626.19 586.195 625.969 586.969C625.673 588.006 625.23 589.348 625.148 590.402C625.076 591.345 624.617 591.68 624.375 592.5C624.242 592.951 624.387 593.448 624.281 593.906C623.576 596.973 622.337 600.056 621.469 603.094C621.024 604.65 620.859 606.447 620.342 607.96L620.748 608.118C618.962 617.809 615.676 627.4 613.479 637.043L602.484 688.571L598.074 707.87C597.53 710.299 596.405 713.301 596.528 715.744C593.151 717.444 588.554 717.88 584.834 718.637C578.5 719.926 571.735 721.319 565.776 723.832C559.653 725.189 552.726 726.575 547.169 729.562C547.701 730.44 548.645 730.44 549.606 730.719L592.441 735.713L592.718 735.899C596.281 738.19 600.888 739.191 604.701 741.276C616.607 747.786 626.813 757.48 635.27 768L55.3501 768L85.4437 681.235L98.9901 641.625L110.725 610.699L127.043 566.912L133.056 549.827C134.803 545.093 136.758 540.417 138.159 535.564C140.108 528.817 140.7 521.983 143.099 515.303C147.299 503.607 153.289 492.372 158.548 481.125C166.342 464.462 173.964 447.431 183.003 431.398L191.453 417.34C193.865 413.555 196.628 408.941 200.508 406.491C201.74 405.713 202.867 405.254 204.302 404.975C211.632 403.552 219.443 403.438 226.875 402.746L275.438 398.083L306 394.546C311.246 393.771 316.73 393.099 321.836 391.65C322.488 391.465 322.518 391.6 323.122 391.843Z"/>
	<path fill="#D33442" transform="scale(0.666667 0.666667)" d="M322.289 660.379C325.536 656.407 329.103 654.044 333.942 652.419C338.654 650.836 343.473 649.947 348.368 649.166C350.727 648.79 353.409 648.23 355.795 648.425C361.657 648.904 368.393 652.555 373.804 654.826C377.342 656.31 380.998 657.562 384.433 659.271L377.625 658.665L359.32 658.506C353.272 658.462 347.101 658.202 341.065 658.533L322.289 660.379Z"/>
	<path fill="#F4EDEA" transform="scale(0.666667 0.666667)" d="M322.289 660.379L341.065 658.533C347.101 658.202 353.272 658.462 359.32 658.506L377.625 658.665L384.433 659.271C387.357 660.214 389.943 661.333 392.529 663.006C401.693 668.933 409.52 677.346 417.019 685.191C426.391 694.994 436.929 705.71 443.16 717.815L445.621 723.413C440.728 722.527 436.782 716.082 432.921 713.032C429.701 710.489 426.178 708.338 422.618 706.311L372.488 680.987L353.035 671.854C348.002 669.483 343.048 667.304 338.316 664.341C336.468 663.523 334.701 663.031 332.701 662.725C330.42 662.376 322.534 662.835 321.254 661.688L322.289 660.379Z"/>
	<path fill="#3C4E57" transform="scale(0.666667 0.666667)" d="M222.028 640.586C223.143 644.596 223.075 648.454 224.898 652.37C226.235 655.242 228.297 657.883 230.549 660.096C232.081 661.602 236.088 664.447 236.887 666.338C237.933 668.813 238.269 672.929 238.808 675.649C241.248 687.973 243.815 699.25 240.714 711.757L259.148 712.358L289.274 714.005C300.508 714.608 311.826 715.066 322.993 716.456C329.971 717.325 337.032 719.569 343.991 720.85L265.69 722.273L240.036 721.715L215.642 721.751L203.35 721.49C201.446 721.441 198.672 721.076 196.91 721.798C193.984 722.998 190.912 725.803 188.368 727.708C184.442 730.646 180.34 733.438 175.908 735.562C172.052 737.411 167.679 737.813 163.64 736.246C161.613 735.46 159.863 733.83 159.018 731.812C158.233 729.937 158.371 727.329 159.032 725.438C160.296 721.821 162.924 718.226 165.125 715.087C173.966 702.474 184.879 690.803 195.525 679.688C199.899 675.121 204.935 670.687 208.798 665.696C211.304 662.459 212.978 658.849 214.829 655.229L222.028 640.586Z"/>
	<path fill="#83858C" transform="scale(0.666667 0.666667)" d="M323.122 391.843C324.877 389.386 326.312 386.645 327.938 384.093L334.186 375.034C339.141 367.868 344.583 360.341 352.224 355.835C356.206 353.488 360.717 352.024 365.002 350.335C363.726 354.254 358.773 366 360.204 369.365C359.216 372.294 357.905 374.942 357.594 378.068C357.178 382.256 357.805 386.61 358.418 390.75C361.298 410.191 369.428 428.598 376.206 446.911L422.769 544.853L437.858 576.807L452.279 603.314C466.36 581.071 476.13 556.76 484.43 531.88C490.926 512.405 496.409 492.932 500.326 472.767L575.192 514.576C575.414 516.032 571.858 521.18 570.918 522.631L558.717 540.16L541.881 564.624L513.435 601.215C515.292 600.638 529.663 581.641 532.125 578.482C532.708 577.734 534.994 574.158 535.523 573.978C535.936 573.837 536.397 573.996 536.834 574.005L537.39 574.512L538.014 574.388C538.686 574.269 539.125 574.344 539.779 574.497C541.362 574.866 542.755 574.251 544.388 574.572C546.701 575.027 549.361 574.363 551.712 574.346L562.867 574.64L563.459 574.527C564.525 574.337 565.432 574.681 566.507 574.693C569.269 574.726 573.862 574.031 576.373 574.958L576.792 574.825C578.204 574.482 579.658 574.812 581.062 574.451C583.376 573.856 585.941 574.479 588.377 573.934C589.085 573.775 589.853 573.805 590.582 573.663C592.462 573.296 594.331 573.594 596.252 573.184C596.966 573.031 597.725 573.053 598.457 572.91C600.51 572.509 603.1 572.784 605.208 572.782C609.24 572.778 613.7 572.388 617.625 573.182C618.411 573.341 619.143 573.189 619.964 573.399C621.249 573.727 622.679 573.289 623.815 573.972C624.636 574.465 625.462 574.926 626.344 575.297C627.286 575.692 628.067 576.324 628.875 576.938C628.661 578.153 628.27 579.442 627.844 580.594L627.469 582.117C627.307 582.926 627.465 582.218 627.094 583.219L626.725 584.713C626.561 585.529 626.19 586.195 625.969 586.969C625.673 588.006 625.23 589.348 625.148 590.402C625.076 591.345 624.617 591.68 624.375 592.5C624.242 592.951 624.387 593.448 624.281 593.906C623.576 596.973 622.337 600.056 621.469 603.094C621.024 604.65 620.859 606.447 620.342 607.96L620.748 608.118C618.962 617.809 615.676 627.4 613.479 637.043L602.484 688.571L598.074 707.87C597.53 710.299 596.405 713.301 596.528 715.744C593.151 717.444 588.554 717.88 584.834 718.637C578.5 719.926 571.735 721.319 565.776 723.832C559.653 725.189 552.726 726.575 547.169 729.562C547.701 730.44 548.645 730.44 549.606 730.719C549.136 731.005 548.796 731.214 548.258 731.353C544.012 732.455 538.543 732.319 534.129 732.362L511.239 732.516L488.409 733.893L452.828 733.233L415.135 733.308L406.609 733.481C405.833 733.499 404.104 733.771 403.408 733.557C402.101 733.155 400.209 731.697 398.964 730.956L381.075 719.436L347.966 698.874L323.03 682.635C326.044 680.065 328.438 676.735 330.871 673.628L338.316 664.341C343.048 667.304 348.002 669.483 353.035 671.854L372.488 680.987L422.618 706.311C426.178 708.338 429.701 710.489 432.921 713.032C436.782 716.082 440.728 722.527 445.621 723.413C449.441 725.274 455.265 725.242 459.503 725.793L474.516 728.057C472.859 712.999 470.729 695.852 464.403 681.939C456.544 664.654 442.738 652.283 430.427 638.3C424.177 631.2 418.837 623.557 412.892 616.236C405.805 607.511 398.149 599.221 390.244 591.238L350.3 554.593C334.169 539.653 319.374 523.314 306.031 505.837C300.449 498.526 294.779 490.919 290.298 482.887C299.756 475.841 310.65 469.985 320.886 464.121L339.555 453.427L356.226 444.953L286.378 443.769L323.122 391.843Z"/>
	<path fill="#3C4657" transform="scale(0.666667 0.666667)" d="M478.193 698.438L479.189 698.347C480.551 699.853 481.088 702.923 481.579 704.853C482.785 709.599 486.104 724.567 483.81 728.438C483.377 728.51 483.013 728.378 482.589 728.286C480.965 725.282 480.623 720.574 480.03 717.188C479.126 712.023 477.941 706.643 477.473 701.427C477.337 699.913 477.22 699.597 478.193 698.438Z"/>
</svg>
